<?xml version="1.0" encoding="UTF-8" standalone="no"?>
<!-- Created with Inkscape (http://www.inkscape.org/) -->

<svg
   version="1.1"
   id="svg1"
   width="960"
   height="720"
   viewBox="0 0 960 720"
   sodipodi:docname="Mitsuba.svg"
   inkscape:version="1.3.2 (091e20e, 2023-11-25, custom)"
   xmlns:inkscape="http://www.inkscape.org/namespaces/inkscape"
   xmlns:sodipodi="http://sodipodi.sourceforge.net/DTD/sodipodi-0.dtd"
   xmlns="http://www.w3.org/2000/svg"
   xmlns:svg="http://www.w3.org/2000/svg">
  <defs
     id="defs1" />
  <sodipodi:namedview
     id="namedview1"
     pagecolor="#ffffff"
     bordercolor="#000000"
     borderopacity="0.25"
     inkscape:showpageshadow="2"
     inkscape:pageopacity="0.0"
     inkscape:pagecheckerboard="0"
     inkscape:deskcolor="#d1d1d1"
     inkscape:zoom="1.5261721"
     inkscape:cx="279.45734"
     inkscape:cy="287.32015"
     inkscape:window-width="1920"
     inkscape:window-height="991"
     inkscape:window-x="-9"
     inkscape:window-y="-9"
     inkscape:window-maximized="1"
     inkscape:current-layer="g1" />
  <g
     inkscape:groupmode="layer"
     inkscape:label="Image"
     id="g1">
    <path
       style="fill:#000000"
       d="m 32.80695,383.82754 c 0,-67.46666 0.210787,-122.45588 0.468416,-122.19825 0.492994,0.493 3.526523,195.25136 3.529722,226.61492 0.0018,17.58395 -0.07113,18.25 -1.998138,18.25 -1.989131,0 -2,-0.66667 -2,-122.66667 z m 291,78.17822 c 0,-0.81864 -2.0663,-7.68114 -4.59178,-15.25 -4.31683,-12.93752 -4.93341,-14.12083 -10.29702,-19.76155 -6.333,-6.66019 -10.73966,-13.23343 -9.58836,-14.3026 0.41303,-0.38357 0.96393,-0.0987 1.22421,0.63304 0.26028,0.73174 2.71483,4.02397 5.45454,7.31607 4.63572,5.57039 5.07906,5.85965 6.39059,4.16956 1.30285,-1.67891 1.48508,-1.69003 2.41281,-0.14725 0.90073,1.49787 1.28875,1.39544 3.788,-1 1.53146,-1.46785 3.56072,-3.11882 4.50947,-3.66882 1.27687,-0.74021 1.87963,-2.87039 2.32019,-8.19962 0.7824,-9.46414 -1.43703,-17.08338 -5.68672,-19.52237 -1.61476,-0.92674 -2.93593,-1.26032 -2.93593,-0.74129 0,0.51904 -0.9,0.1731 -2,-0.76875 -2.52466,-2.16168 -2.54385,-3.26797 -0.0567,-3.26797 1.06881,0 2.64381,1.00013 3.5,2.22251 l 1.5567,2.2225 -0.0153,-2.4725 c -0.026,-4.20329 -1.37286,-5.33348 -5.5483,-4.6559 -4.18476,0.67909 -6.52946,2.33735 -4.91355,3.47503 0.55337,0.3896 3.63791,3.85836 6.85453,7.70836 l 5.8484,7 -7.04322,-7.48633 c -3.87377,-4.11748 -7.39904,-7.13051 -7.83393,-6.69563 -0.43488,0.43489 -0.35373,1.10374 0.18034,1.48633 0.53407,0.3826 2.93395,3.17063 5.33305,6.19563 l 4.36202,5.5 -6.12235,-6.40984 c -5.92212,-6.20023 -6.06485,-6.47337 -4.36437,-8.35238 2.31591,-2.55906 6.35079,-4.47878 8.41945,-4.00583 2.56774,0.58706 3.15344,-1.49557 0.77811,-2.76681 -3.04144,-1.62772 -5.84603,-0.58283 -10.64564,3.96621 -5.20784,4.93594 -7.71899,12.45056 -7.0858,21.20426 0.2333,3.22541 0.10983,5.86439 -0.2744,5.86439 -1.46323,0 -2.07752,-11.02011 -0.82288,-14.7623 0.68922,-2.05574 1.18438,-4.66501 1.10036,-5.7984 -0.23523,-3.17296 9.45205,-12.1065 13.75862,-12.6881 4.47175,-0.60391 10.85732,3.21896 17.48668,10.46881 6.93078,7.57948 8.90118,13.69767 8.28757,25.73326 -0.37327,7.32144 -0.064,10.91487 1.37151,15.93449 1.0194,3.56467 1.68043,6.65425 1.46895,6.86573 -0.21148,0.21148 -1.3785,-2.23404 -2.59339,-5.43449 -2.38911,-6.29383 -2.69491,-10.39783 -1.49206,-20.02486 0.60995,-4.8818 0.42657,-6.94093 -0.8595,-9.65113 -0.89919,-1.8949 -1.63489,-3.92474 -1.63489,-4.51076 0,-2.24152 -12.4332,-15.03238 -13.53807,-13.92751 -0.2248,0.2248 1.17225,4.06552 3.10456,8.53493 3.53703,8.1811 6.93225,23.26033 5.23726,23.26033 -0.49928,0 -1.34869,1.26477 -1.88757,2.81061 -0.63346,1.81712 -2.12598,3.22508 -4.22239,3.98315 -2.20073,0.7958 -3.64882,2.2222 -4.50689,4.43939 -1.21331,3.13508 -1.32324,3.18855 -2.7256,1.32572 -2.38824,-3.17244 -1.68277,-0.25352 2.04201,8.44886 1.92682,4.50172 4.40237,11.70623 5.50122,16.01001 1.09885,4.30377 2.27051,8.53542 2.60368,9.40365 0.33317,0.86824 0.10762,1.57861 -0.50122,1.57861 -0.60885,0 -1.10699,-0.6698 -1.10699,-1.48845 z m 169.50708,-1.5001 c -0.35034,-0.56686 0.0511,-0.7345 0.94098,-0.39301 1.73242,0.66479 2.04939,1.38156 0.61096,1.38156 -0.51754,0 -1.21592,-0.44485 -1.55194,-0.98855 z M 341.24484,448.81734 c -3.01765,-6.42228 -5.33983,-12.11733 -5.16038,-12.65565 0.17944,-0.53833 1.74147,1.90376 3.47116,5.42687 2.49642,5.08477 3.02059,5.70342 2.54202,3.00016 -0.43197,-2.44005 -0.27514,-3.20293 0.55321,-2.69098 0.63586,0.39297 1.1561,1.50588 1.1561,2.47312 0,0.96723 0.84855,4.99067 1.88567,8.94098 1.03712,3.9503 1.69514,7.18237 1.46227,7.18237 -0.23288,0 -2.8924,-5.25459 -5.91005,-11.67687 z m -12.2397,6.88647 c -2.21448,-3.37139 -5.76408,-11.30585 -8.81738,-19.7096 l -1.4533,-4 2.37231,2.5 c 1.30477,1.375 3.62529,5.425 5.15671,9 1.53142,3.575 3.44346,7.9351 4.24898,9.68911 2.23592,4.86869 1.18709,6.62252 -1.50732,2.52049 z m 152.45525,0.22091 c -8.51841,-3.72424 -10.21715,-4.17145 -7.21231,-1.89871 2.72693,2.06255 1.20123,1.82944 -2.41337,-0.36872 -1.66132,-1.01031 -2.7222,-2.13531 -2.3575,-2.5 0.36469,-0.3647 -0.25697,-0.66308 -1.38147,-0.66308 -1.1245,0 -3.70753,-0.69484 -5.74007,-1.54409 -2.03254,-0.84925 -4.59554,-1.25844 -5.69556,-0.9093 -1.25669,0.39885 -2.43733,0.0508 -3.1766,-0.93645 -0.64711,-0.86418 -8.69586,-4.70442 -17.88611,-8.53387 -19.18882,-7.9957 -21.02264,-8.89158 -20.3682,-9.95049 0.26305,-0.42562 -3.15561,-2.54054 -7.59702,-4.69983 -7.89933,-3.84042 -14.50016,-8.42232 -12.13698,-8.42475 2.25425,-0.002 17.81545,5.28098 19.31175,6.55667 1.43891,1.22677 13.42359,6.98761 24.02093,11.54646 2.77196,1.19247 4.84073,2.36732 4.59727,2.61079 -0.36746,0.36745 -9.99238,-3.59584 -32.3682,-13.32837 -1.7875,-0.77749 -3.25,-1.18905 -3.25,-0.91459 0,1.7565 55.3526,27.04597 56.98667,26.03605 0.62169,-0.38422 25.51532,9.90481 26.93,11.1307 1.49744,1.29762 -3.60522,-0.29754 -10.26323,-3.20842 z m -141.39403,-2.65634 c -0.56407,-0.7008 -2.41026,-3.97417 -4.10263,-7.27417 -1.69238,-3.3 -4.0811,-7.5287 -5.30826,-9.39712 -1.29925,-1.97815 -1.68733,-3.21582 -0.92911,-2.96308 1.37883,0.45961 12.48823,19.7859 11.78045,20.49368 -0.22817,0.22817 -0.87637,-0.15852 -1.44045,-0.85931 z m -7.75941,-25.77417 c -0.85325,-1.65 -1.32636,-3 -1.05136,-3 0.275,0 1.19811,1.35 2.05136,3 0.85325,1.65 1.32636,3 1.05136,3 -0.275,0 -1.19811,-1.35 -2.05136,-3 z m 148.25,2.33772 c 0.6875,-0.27741 1.8125,-0.27741 2.5,0 0.6875,0.27741 0.125,0.50438 -1.25,0.50438 -1.375,0 -1.9375,-0.22697 -1.25,-0.50438 z m -3.9375,-1.02083 c 0.72187,-0.28888 1.58437,-0.25335 1.91667,0.0789 0.33229,0.33229 -0.25834,0.56864 -1.3125,0.52522 -1.16495,-0.048 -1.4019,-0.28494 -0.60417,-0.60416 z m -14.0625,-2.554 c -5.3625,-1.11119 -9.75,-2.36355 -9.75,-2.78303 0,-0.75688 15.20581,2.26235 20,3.97116 3.98903,1.42182 0.25864,0.98942 -10.25,-1.18813 z M 329.0019,418.99421 c 0.0204,-1.65 0.2445,-2.20394 0.49804,-1.23097 0.25354,0.97297 0.23687,2.32297 -0.037,3 -0.27393,0.67703 -0.48137,-0.11903 -0.46099,-1.76903 z m 176.80505,-1.37245 c 0,-0.47985 -5.0625,-4.26728 -11.25,-8.41651 -6.1875,-4.14923 -12.24368,-8.48163 -13.45819,-9.62755 -1.2145,-1.14592 -2.51815,-2.08349 -2.89701,-2.08349 -0.37885,0 -2.57465,-1.5453 -4.87955,-3.43399 -2.91209,-2.38624 -4.13926,-4.13276 -4.02201,-5.72419 0.13978,-1.89743 -0.70266,-2.6066 -4.91226,-4.13513 -11.91666,-4.32701 -14.11578,-4.68552 -30.08098,-4.90392 l -16,-0.21887 14.5,-0.54195 c 9.78375,-0.36568 13.84948,-0.83418 12.5,-1.44039 -6.08055,-2.73151 -13.86686,-5.6014 -20.5,-7.55593 -13.79486,-4.06479 -16.97224,-5.1917 -17.62743,-6.25182 -0.38158,-0.61741 -0.0761,-0.82122 0.73823,-0.49251 0.76406,0.30843 3.8642,1.31434 6.8892,2.23538 5.161,1.57139 20.20771,6.76329 35,12.07682 3.575,1.28418 7.9625,2.34648 9.75,2.36068 2.79796,0.0222 3.25,-0.31833 3.25,-2.4485 0,-2.4503 4.04349,-5.52568 7.26513,-5.52568 0.75044,0 2.10118,-1.54494 3.00163,-3.43321 1.6069,-3.3697 1.56612,-3.61316 -2.20441,-13.16121 -3.78337,-9.58056 -3.81555,-9.77482 -2.12337,-12.81679 1.1466,-2.06121 2.62421,-3.19572 4.44153,-3.41022 1.84967,-0.21832 3.04017,-1.15484 3.71102,-2.91932 l 0.98772,-2.59789 4.46037,4.37753 4.46038,4.37753 0.23607,-8.95821 c 0.12983,-4.92702 0.15268,-11.34513 0.0508,-14.26247 -0.1567,-4.48524 0.0771,-5.26424 1.51393,-5.04511 0.93458,0.14254 2.73677,-0.31228 4.00487,-1.01069 2.10311,-1.15832 2.60817,-0.93956 5.75,2.49052 3.3055,3.60877 4.21292,5.36954 2.7672,5.36954 -0.37245,0 -1.86046,-1.41738 -3.30668,-3.14972 -2.57953,-3.08986 -2.67876,-3.11746 -5.22054,-1.45201 -3.2947,2.15876 -3.95094,5.65655 -3.72496,19.85413 0.11971,7.52096 -0.18919,11.28711 -0.94647,11.53954 -0.6183,0.2061 -1.12418,-0.51616 -1.12418,-1.60502 0,-1.87482 -6.10489,-8.18692 -7.91817,-8.18692 -0.46671,0 -1.08446,0.90206 -1.37278,2.00458 -0.36463,1.39436 -1.2363,1.92709 -2.86339,1.75 -1.82297,-0.1984 -2.41622,0.29713 -2.68824,2.24542 -0.19198,1.375 -0.73338,2.96893 -1.20312,3.54207 -0.50627,0.61773 0.7855,4.58605 3.17222,9.74503 3.57394,7.72519 3.85823,8.871 2.53045,10.19878 -0.82271,0.82271 -1.97954,2.96245 -2.57073,4.75498 -0.95801,2.90473 -1.48078,3.25914 -4.80734,3.25914 -4.50548,0 -5.88973,2.92322 -2.10314,4.44137 1.68059,0.6738 1.8483,0.94941 0.60562,0.99524 -3.66986,0.13536 -0.36164,3.12115 5.57376,5.03053 5.93914,1.91058 5.99421,1.95886 1.64486,1.44219 l -4.5,-0.53456 5.05118,4.81262 c 4.83174,4.60354 20.23254,16.68109 29.17747,22.88144 4.43438,3.07378 5.28332,4.43117 2.77135,4.43117 -0.825,0 -1.5,-0.3926 -1.5,-0.87245 z m -42.73097,-36.78349 c -0.67703,-0.27392 -2.02703,-0.29059 -3,-0.0371 -0.97297,0.25354 -0.41903,0.47766 1.23097,0.49804 1.65,0.0204 2.44606,-0.18706 1.76903,-0.46099 z m -142.86263,30.91266 c -1.85417,-2.31906 -2.8422,-2.63052 -8.63954,-2.7235 -6.56594,-0.10531 -8.93691,-1.11392 -10.79944,-4.5941 -0.65665,-1.22695 -0.38964,-2.40622 0.92427,-4.08225 1.01622,-1.29628 2.16998,-3.8326 2.5639,-5.63627 l 0.71623,-3.2794 2.68795,3.2794 c 1.47838,1.80367 5.37722,6.1389 8.66409,9.63385 5.52566,5.87546 8.41854,10.23306 6.69392,10.08316 -0.39478,-0.0343 -1.6599,-1.24071 -2.81138,-2.68089 z m -13.17218,-7.28603 c -1.92276,-1.74903 -2.6718,-2.97069 -1.82143,-2.97069 0.7944,0 2.1515,0.70714 3.01578,1.57143 0.86429,0.86428 1.57143,1.14104 1.57143,0.61501 0,-0.52603 -1.20001,-1.7427 -2.66669,-2.70371 -2.54804,-1.66953 -2.72603,-1.66614 -4,0.0761 -1.70363,2.32985 -1.70284,3.52018 0.002,2.86602 0.73436,-0.2818 2.42186,0.39235 3.75,1.49811 3.71343,3.09166 3.82325,2.38993 0.14903,-0.95229 z m 5.7452,-2.49166 c -2.41771,-2.46347 -5.08964,-4.46932 -5.93763,-4.45746 -0.91137,0.0127 0.62492,2.10532 3.75721,5.11767 6.446,6.19916 8.34737,5.62345 2.18042,-0.66021 z m 145.57058,6.66588 c 1.59174,-1.43271 19.58478,-8.34346 20.17821,-7.75003 0.53629,0.53629 -4.0388,2.72268 -14.01523,6.69775 -5.1111,2.0365 -7.75867,2.48855 -6.16298,1.05228 z m -139.05,-3.14491 c -1.5808,-1.65 -2.45249,-2.9751 -1.93709,-2.94467 0.88102,0.052 6.03575,5.94467 5.20024,5.94467 -0.21393,0 -1.68235,-1.35 -3.26315,-3 z m 68.39335,-7.5 c -0.39179,-5.89217 -0.9741,-7.69636 -3.6794,-11.40004 -1.76767,-2.42002 -3.21395,-5.07424 -3.21395,-5.89827 0,-0.82403 2.025,1.58489 4.5,5.35315 4.64383,7.07036 4.91242,8.1787 3.62177,14.94516 -0.71869,3.76782 -0.78999,3.59368 -1.22842,-3 z m -184.83831,2.97649 c -7.46717,-1.41258 -24.4672,-3.19004 -37.55504,-3.92661 -7.44456,-0.41897 -17.34165,-2.27289 -19,-3.55907 -1.02475,-0.79477 -10.85622,-3.55312 -18,-5.05014 -2.2,-0.46102 -10.03872,-2.66127 -17.41938,-4.88944 -7.38065,-2.22818 -14.266501,-4.05123 -15.301879,-4.05123 -1.035378,0 -3.546659,-0.8591 -5.580623,-1.90911 -3.787014,-1.95499 -7.347616,-3.47792 -10.448118,-4.46883 -0.9625,-0.30761 -1.75,-1.03199 -1.75,-1.60973 0,-1.10578 4.111459,-0.44727 7.25,1.16119 0.9625,0.49326 1.75,0.66757 1.75,0.38734 0,-1.01584 -5.596542,-3.3404 -9.672055,-4.01734 -6.798139,-1.12917 -23.327945,-12.42766 -23.327945,-15.94517 0,-1.77724 0.348468,-1.6673 3.25,1.02539 1.7875,1.65884 4.375,3.70657 5.75,4.55051 2.041024,1.25272 19.222496,9.28359 27.5,12.85389 9.277241,4.00152 11.30804,4.82398 13.5,5.46746 1.375,0.40365 4.075,1.55151 6,2.55079 5.05186,2.62247 15.01298,6.06415 16.89146,5.83619 0.8847,-0.10736 2.95854,0.36341 4.60854,1.04615 9.98572,4.13194 32.70677,8.07534 66.9164,11.61382 17.24655,1.7839 28.50792,1.33772 25.30723,-1.00269 -2.71951,-1.98855 -2.23682,-4.10365 0.52637,-2.3065 1.2375,0.80487 3.9375,2.01652 6,2.69257 2.0625,0.67604 3.75,1.5851 3.75,2.02011 0,0.43502 -3.2625,1.05877 -7.25,1.38611 -3.9875,0.32734 -9.275,0.81062 -11.75,1.07395 -2.475,0.26333 -7.85023,-0.155 -11.94496,-0.92961 z M 98.30695,377.49421 c -0.339919,-0.55 -1.153977,-0.99311 -1.809017,-0.98469 -0.715616,0.009 -0.592275,0.40223 0.309017,0.98469 1.921123,1.24152 2.267304,1.24152 1.5,0 z m 396,18.90005 c -7.91523,-6.70444 -9.39812,-7.91468 -13.51973,-11.03394 -1.91415,-1.44864 -4.29098,-4.03236 -5.28184,-5.74159 l -1.80156,-3.1077 3.55156,-1.69362 c 1.95336,-0.93149 3.55157,-2.22459 3.55157,-2.87355 0,-0.64897 0.8328,-2.25312 1.85067,-3.56479 1.01787,-1.31167 1.66912,-2.90612 1.44721,-3.54322 -0.2219,-0.6371 0.0271,-1.42445 0.55332,-1.74968 0.5389,-0.33305 -0.34438,-2.99366 -2.02232,-6.09164 -3.51512,-6.48998 -2.65455,-6.96589 5.3038,-2.93309 2.7864,1.41198 5.24925,2.38417 5.47299,2.16043 0.22374,-0.22374 0.46348,-6.10399 0.53275,-13.06723 0.0693,-6.96324 0.28508,-12.66043 0.47958,-12.66043 0.19449,0 1.54481,1.8 3.0007,4 1.45589,2.2 3.02177,4 3.47974,4 0.45797,0 1.13115,-2.25 1.49595,-5 0.3648,-2.75 1.06535,-5 1.55678,-5 1.22518,0 10.00613,8.17603 9.4154,8.76677 -0.26089,0.26088 -2.20642,-0.8975 -4.32341,-2.57418 l -3.84907,-3.04852 -1.2867,4.3578 c -0.70769,2.39678 -1.00306,5.2515 -0.65637,6.3438 1.23812,3.90099 -1.07217,2.93242 -3.37943,-1.41679 -1.29223,-2.43588 -2.77679,-4.42888 -3.29903,-4.42888 -0.56257,0 -0.81158,4.51371 -0.61104,11.07623 l 0.33848,11.07622 -2.91142,-0.58351 c -1.60128,-0.32093 -4.25791,-1.25523 -5.90363,-2.07622 -4.40166,-2.19584 -4.83931,-1.86866 -2.59301,1.93853 1.51508,2.56788 1.85602,4.32921 1.35498,7 -0.36823,1.96281 -1.06942,3.56875 -1.55821,3.56875 -0.48879,0 -0.88871,1.14796 -0.88871,2.55103 0,1.97024 -0.79684,2.88396 -3.5,4.01342 -5.24486,2.19144 -4.74124,4.14657 2.38676,9.2658 4.90462,3.52243 19.50528,17.1747 18.35299,17.16086 -0.40686,-0.005 -3.43975,-2.29586 -6.73975,-5.09106 z M 217.3663,389.41012 c -5.56128,-1.36028 -5.94343,-2.34278 -0.55935,-1.43809 6.30089,1.05874 10.9074,0.75405 23.16405,-1.53217 5.86522,-1.09403 12.74316,-2.1448 15.2843,-2.33504 4.68253,-0.35055 7.64352,-1.61061 3.78476,-1.61061 -1.15512,0 -4.26762,-1.32594 -6.91666,-2.94653 -3.90055,-2.38621 -7.38361,-3.34308 -18.31645,-5.0319 -16.75966,-2.58891 -43.13909,-8.67735 -48.49068,-11.19179 -2.20513,-1.03607 -3.10932,-1.61466 -2.00932,-1.28576 1.1,0.3289 4.25,0.84368 7,1.14396 2.75,0.30027 8.375,1.44131 12.5,2.53564 10.12175,2.68521 28.20165,6.39642 35.25,7.23565 3.1625,0.37655 5.75,1.15475 5.75,1.72932 0,0.57457 0.90001,0.80931 2.00003,0.52165 2.29821,-0.60099 8.99997,1.2202 8.99997,2.44572 0,0.45122 1.77222,1.10379 3.93827,1.45016 2.16604,0.34636 4.17692,1.25168 4.46861,2.01182 0.29169,0.76013 1.41792,1.38206 2.50272,1.38206 1.0848,0 2.25048,0.45 2.5904,1 0.36057,0.58341 -0.65613,1 -2.44054,1 -1.68221,0 -7.16146,0.70804 -12.1761,1.57343 -21.84686,3.77015 -31.09601,4.62124 -36.32401,3.34248 z m -12.05935,-2.84781 c -1.1,-0.43523 -2.52097,-0.59639 -3.15771,-0.35814 -2.88072,1.0779 -45.34229,-13.76796 -45.34229,-15.85304 0,-0.53623 0.5625,-0.69085 1.25,-0.3436 0.6875,0.34724 -0.1,-0.54511 -1.75,-1.98301 -1.65,-1.43789 -8.83313,-5.55299 -15.96252,-9.14466 -7.12938,-3.59166 -13.42938,-6.82623 -14,-7.18793 -0.57061,-0.36169 -4.18748,-2.07009 -8.03748,-3.79644 -8.65531,-3.88107 -30.08134,-15.97443 -34.630907,-19.54652 -5.587047,-4.38667 -2.789,-4.01496 4.146109,0.55079 6.770486,4.45737 12.793428,7.66834 31.984798,17.05181 19.39396,9.48253 29.40812,14.90284 33.54291,18.15562 2.1764,1.71215 5.44068,3.87211 7.25396,4.79992 1.81327,0.92781 4.16946,2.45197 5.23597,3.38701 2.7683,2.42708 18.34474,8.18689 19.05634,7.04661 0.34285,-0.54941 2.76227,-0.0876 5.78702,1.10468 5.97678,2.35583 7.55455,2.55479 6.48067,0.81721 -0.41864,-0.67737 0.48647,-0.2502 2.01136,0.94928 1.52489,1.19948 4.77139,2.48062 7.21445,2.84698 2.44305,0.36636 4.68794,1.06418 4.98863,1.55072 0.66501,1.076 -3.31056,1.04504 -6.07131,-0.0473 z M 379.445,372.25649 c -0.4738,-2.60574 -0.62746,-5.34749 -0.34147,-6.09277 0.28599,-0.74529 -0.26767,-4.68831 -1.23036,-8.76229 -1.78465,-7.55243 -5.61111,-15.53535 -11.03655,-23.02497 -2.73296,-3.77272 -3.03588,-3.94728 -3.09306,-1.78229 l -0.0634,2.40004 -1.04959,-2.5 c -0.57727,-1.375 -1.41151,-3.85 -1.85386,-5.5 -0.44236,-1.65 -1.96093,-7.05 -3.37461,-12 -1.42838,-5.00147 -2.50928,-11.22141 -2.43292,-14 0.0906,-3.29695 0.28196,-3.97817 0.56179,-2 0.23341,1.65 1.50221,7.59408 2.81955,13.20907 2.20135,9.38297 3.06799,11.24408 10.71002,23 9.67974,14.89057 12.04973,21.92723 11.5494,34.29093 l -0.30351,7.5 z m -120.13805,2.08073 c 2.75,-0.50631 7.925,-1.60496 11.5,-2.44145 3.575,-0.83648 8.3,-1.91627 10.5,-2.39953 2.2,-0.48325 6.11177,-1.3564 8.69282,-1.94034 5.74596,-1.29995 7.09198,-1.33153 6.36128,-0.14923 -0.31016,0.50185 2.25078,0.24942 5.69099,-0.56096 6.97153,-1.64222 12.7869,-2.62287 11.25491,-1.89792 -2.74854,1.30062 -17.2099,4.61557 -26.5142,6.0778 -5.76719,0.90635 -13.1858,2.27591 -16.4858,3.04348 -3.3,0.76757 -8.25,1.34903 -11,1.29214 l -5,-0.10343 z m 56.3125,-10.52612 c 0.72187,-0.28888 1.58437,-0.25335 1.91667,0.0789 0.33229,0.33229 -0.25834,0.56864 -1.3125,0.52522 -1.16495,-0.048 -1.4019,-0.28494 -0.60417,-0.60416 z m -8.3125,-1.98602 c -6.57379,-0.80961 -31.5,-7.84453 -31.5,-8.89025 0,-0.59977 5.96956,0.57667 11.14391,2.19616 l 4.64392,1.45348 6.35608,-4.79782 c 5.01631,-3.7865 19.03861,-17.55633 29.60609,-29.07302 0.6875,-0.74925 1.25,-0.89156 1.25,-0.31624 0,0.57532 -4.33018,5.55746 -9.62261,11.07143 -5.29244,5.51396 -9.20554,10.02539 -8.69578,10.02539 1.71961,0 10.4684,-6.0408 13.40455,-9.25548 1.60261,-1.75463 2.91384,-2.58059 2.91384,-1.83546 0,2.31657 -6.23063,7.33623 -17.13746,13.80666 -10.5065,6.23294 -15.56425,9.91591 -14.74389,10.73626 0.75863,0.75863 15.84945,3.65271 19.88592,3.81368 2.11986,0.0845 3.63449,0.50934 3.36584,0.94402 -0.48382,0.78284 -5.08168,0.8341 -10.87041,0.12119 z m -135.70082,-1.91644 c -2.58546,-0.79545 -5.02178,-1.96558 -5.41405,-2.60029 -0.44802,-0.72491 -0.18742,-0.95907 0.70082,-0.62974 0.77773,0.28836 3.77655,1.301 6.66405,2.25031 8.30209,2.72945 6.5676,3.60052 -1.95082,0.97972 z m 88.86202,-10.71483 c -3.76134,-1.20978 -6.49884,-2.5371 -6.08333,-2.9496 0.4155,-0.4125 -0.1207,-0.75 -1.19156,-0.75 -1.90197,0 -15.07685,-5.23725 -21.39836,-8.50623 -6.13281,-3.1714 -2.07966,-2.61162 5.67316,0.78351 4.31139,1.88806 12.11389,4.91675 17.33889,6.73043 5.225,1.81368 11.3,4.09711 13.5,5.07431 3.38941,1.50549 3.61838,1.77979 1.5,1.79695 -1.375,0.0111 -5.57746,-0.96959 -9.3388,-2.17937 z m 126.3388,-10.77523 c -7.49642,-0.72158 -14.64581,-2.54227 -15.5168,-3.95155 -0.80171,-1.2972 -0.4619,-1.24744 4.64107,0.67955 2.9859,1.12754 7.76348,1.68338 15.04167,1.75 5.86626,0.0537 10.57842,0.18547 10.47146,0.29283 -1.01926,1.02309 -9.43579,1.72986 -14.6374,1.22917 z m -168.0521,-7.73067 c -13.29739,-6.5037 -15.16553,-9.09895 -7.14218,-9.92205 1.85851,-0.19066 4.51746,-1.09252 5.90876,-2.00414 3.00781,-1.97079 12.44874,-5.28467 13.39299,-4.70109 0.36454,0.2253 1.95198,-0.013 3.52766,-0.5295 1.57568,-0.51652 4.77737,-1.42848 7.11487,-2.02657 4.67893,-1.19719 5.70758,-3.01035 1.70784,-3.01035 -10.8698,0 -63.48058,-17.54445 -80.94589,-26.99353 -3.05637,-1.65356 -5.94252,-3.00647 -6.41367,-3.00647 -0.47115,0 -5.52351,-2.19588 -11.22746,-4.87973 -17.73627,-8.34536 -23.97443,-11.12027 -24.99899,-11.12027 -0.54375,0 -6.69985,-2.63647 -13.68023,-5.85883 -6.980381,-3.22236 -14.385675,-6.46513 -16.45621,-7.20617 -2.070535,-0.74104 -3.589285,-1.81707 -3.375,-2.39117 0.214285,-0.57411 0.906702,-0.92772 1.538704,-0.7858 1.352937,0.30381 9.500373,-3.6919 8.851351,-4.34092 -0.243851,-0.24385 -1.974958,0.1775 -3.846905,0.93634 -1.871947,0.75883 -5.54104,1.65613 -8.15354,1.99399 -3.885867,0.50254 -4.75,0.33264 -4.75,-0.93396 0,-1.05475 0.593316,-1.35994 1.861391,-0.95747 1.023765,0.32493 4.511265,-0.13374 7.75,-1.01927 3.238735,-0.88552 7.305523,-1.96338 9.037306,-2.39523 3.673153,-0.91598 11.115463,-6.28679 9.471103,-6.83491 -1.8193,-0.60643 -1.27702,-3.2066 0.66876,-3.2066 0.9837,0 3.55385,-0.9 5.71144,-2 2.15759,-1.1 4.39023,-2.00412 4.96144,-2.00914 0.57121,-0.005 3.28856,-1.11596 6.03856,-2.46873 2.75,-1.35277 5.59282,-2.47366 6.31739,-2.49086 0.83974,-0.0199 1.09659,-0.72693 0.70842,-1.94994 -0.4228,-1.33212 -0.0613,-2.06092 1.18262,-2.384 0.98536,-0.25593 0.074,-0.51753 -2.02515,-0.58133 -2.58365,-0.0785 -4.84515,0.64781 -7,2.2482 -4.80693,3.57008 -16.15568,9.6358 -18.02824,9.6358 -0.90901,0 -3.45327,1.74734 -5.6539,3.88298 -2.200625,2.13564 -4.00114,3.54074 -4.00114,3.12244 0,-0.41829 0.685874,-1.32976 1.524166,-2.02548 0.838291,-0.69572 1.357603,-1.4315 1.154027,-1.63508 -0.203576,-0.20358 -3.926951,0.31047 -8.274166,1.14233 -4.347215,0.83186 -9.15736,1.51254 -10.689211,1.51264 -2.504356,1.5e-4 -2.673776,-0.208 -1.680261,-2.0644 0.85116,-1.5904 1.414959,-1.80726 2.454871,-0.94421 1.495747,1.24136 10.74239,-0.0923 18.03857,-2.6017 4.163524,-1.43198 11.257204,-7.93766 10.012394,-9.18246 -0.69033,-0.69033 -21.605954,-0.73076 -26.54039,-0.0513 -1.375,0.18933 -2.62929,-0.10576 -2.78731,-0.65576 -0.405004,-1.40965 6.275645,-2.24319 20.78731,-2.59364 l 12.5,-0.30186 3.5,-3.3412 c 12.62113,-12.04848 21.90615,-21.79458 21.03891,-22.08366 -0.55806,-0.18602 -2.37011,0.33797 -4.02678,1.16442 -1.65667,0.82646 -3.01213,1.06418 -3.01213,0.52827 0,-1.02237 4.72569,-3.26341 9.30537,-4.41284 1.80879,-0.45397 2.69463,-0.28044 2.69463,0.52789 0,0.6623 -5.70162,7.01109 -12.67027,14.1084 -6.96866,7.09732 -12.03116,12.88838 -11.25,12.86903 4.49348,-0.11135 19.90213,-2.92027 22.61655,-4.12289 2.30195,-1.01987 5.33775,-4.62346 10.84978,-12.87901 4.20943,-6.3046 8.35335,-12.25041 9.20871,-13.21291 1.41374,-1.59082 1.39946,-1.75 -0.15696,-1.75 -2.64902,0 -10.98574,2.16999 -12.04781,3.13596 -0.5225,0.47522 -2.0975,0.82851 -3.5,0.78509 -2.48355,-0.0769 -2.47183,-0.10685 0.45,-1.14994 1.65,-0.58905 3.225,-1.39457 3.5,-1.79005 0.275,-0.39548 4.32217,-1.48892 8.99371,-2.42988 4.67155,-0.94095 8.94655,-2.06285 9.5,-2.49311 1.59978,-1.24368 6.50629,-2.18218 6.50629,-1.2445 0,0.46842 2.5875,0.47271 5.75,0.01 8.00904,-1.17299 24.22802,-1.08759 33.75,0.17771 4.4,0.58468 19.025,1.4697 32.5,1.96671 23.80786,0.87814 28.83683,1.41956 43.5,4.68323 9.93676,2.21169 26.72561,7.43024 28.5,8.85877 0.825,0.6642 5.325,2.58475 10,4.26789 11.60819,4.1793 25.27008,10.63626 27.04013,12.77986 0.80293,0.97238 1.00987,1.55877 0.45987,1.30309 -0.55,-0.25568 -3.925,-1.85116 -7.5,-3.54551 -3.575,-1.69435 -8.975,-3.92084 -12,-4.94775 -3.025,-1.02691 -5.74419,-2.19268 -6.04264,-2.59061 -0.63412,-0.84548 -16.22263,-6.88524 -26.79133,-10.3803 -9.54794,-3.15749 -23.17395,-5.39094 -30.44191,-4.98975 -3.17673,0.17536 -6.01579,-0.0694 -6.30901,-0.54381 -0.29323,-0.47445 0.95591,-0.91628 2.77587,-0.98184 2.43775,-0.0878 1.59755,-0.47048 -3.19098,-1.45332 -7.55613,-1.55089 -31.67328,-1.84085 -28.5,-0.34265 2.35278,1.11081 -6.3004,0.57283 -16.5,-1.02582 -3.575,-0.56034 -10.40718,-1.02785 -15.18261,-1.0389 -7.39394,-0.0171 -8.76809,0.23962 -9.25852,1.72989 -0.31675,0.9625 -2.19637,3.55 -4.17694,5.75 -1.98056,2.2 -2.89325,2.875 -2.02819,1.5 0.86506,-1.375 2.51169,-4.02607 3.65917,-5.89126 l 2.08632,-3.39125 -13.50306,0.65478 c -13.76018,0.66724 -16.32753,1.11548 -18.09617,3.15947 -3.26905,3.77798 -12.56526,16.66022 -14.82053,20.53759 l -2.65775,4.56932 4.73914,-0.61672 c 3.14601,-0.4094 6.90701,-2.02949 11.18798,-4.81932 6.52505,-4.25228 8.76329,-5.16387 7.44613,-3.03267 -0.45738,0.74006 -0.20349,0.98319 0.69098,0.6617 0.77773,-0.27953 6.13905,-2.00272 11.91405,-3.82933 5.88985,-1.86292 12.12074,-4.56829 14.19136,-6.1617 4.38175,-3.37188 5.87085,-3.69065 3.21363,-0.68794 l -1.90499,2.15267 3.25,-0.62767 c 1.7875,-0.34522 3.25,-0.24817 3.25,0.21566 0,0.46383 -1.8573,1.09245 -4.12733,1.39692 -2.27003,0.30448 -5.98253,1.86399 -8.25,3.46559 -4.3269,3.05626 -7.62267,4.6011 -7.62267,3.57302 0,-0.33461 0.7875,-1.20617 1.75,-1.93681 2.42832,-1.84336 -0.007,-1.7632 -5.25,0.1728 -2.2,0.81239 -6.7,2.40458 -10,3.53821 -3.3,1.13363 -6.9,2.87633 -8,3.87267 -1.1,0.99634 -5.75706,3.68683 -10.34902,5.97885 -11.86817,5.92385 -23.85965,15.67008 -21.80635,17.72338 0.21543,0.21544 3.93853,-1.19736 8.27353,-3.13955 4.33501,-1.94219 7.06527,-2.89949 6.06724,-2.12735 -0.99803,0.77214 -5.13015,2.89589 -9.18248,4.71944 -6.98416,3.14287 -7.43166,3.54332 -8.59233,7.68884 -1.60713,5.74009 -1.4566,11.60294 0.46393,18.07008 1.14444,3.85373 1.23596,5.14922 0.34312,4.8566 -3.75354,-1.23019 -5.47258,-18.54446 -2.33938,-23.56255 0.4521,-0.72409 0.56503,-1.57351 0.25095,-1.8876 -1.2557,-1.2557 -25.9562,7.06358 -31.332232,10.55288 l -5.499519,3.56945 4.85127,2.27684 c 13.492391,6.33236 25.694431,11.35464 26.711331,10.99423 0.62697,-0.22222 4.96494,1.50067 9.63994,3.82864 4.675,2.32797 13.9,6.57629 20.5,9.44071 6.6,2.86442 12.675,5.77845 13.5,6.47562 1.51572,1.28086 2.87829,1.84752 24.5,10.18894 27.73303,10.69909 41.23196,14.63967 54.75,15.98249 3.7125,0.36879 6.75,0.97564 6.75,1.34856 0,1.16351 -10.93714,5.95405 -24.94159,10.92458 -7.39288,2.62391 -13.60047,5.24737 -13.79465,5.8299 -0.19418,0.58253 3.04204,2.71427 7.1916,4.73719 6.86878,3.34855 8.83645,4.65107 6.79464,4.4978 -0.4125,-0.031 -4.14844,-1.71847 -8.3021,-3.75 z m -5.9479,-7.6937 c 2.65388,-1.5171 1.95737,-1.86325 -1.75,-0.86971 -1.2375,0.33163 -2.25,1.00049 -2.25,1.48634 0,1.22151 1.07419,1.05591 4,-0.61663 z m 15,-5.53848 c 5.01641,-1.80788 5.15009,-1.92952 1.52033,-1.38344 -2.18882,0.3293 -5.11382,1.21592 -6.5,1.97028 -3.62418,1.97228 -1.391,1.70911 4.97967,-0.58684 z m -102.25,-85.53858 c 3.65397,-1.3656 5.77319,-3.42294 3.5259,-3.42294 -1.48873,0 -17.2321,6.52611 -17.25355,7.15213 -0.0242,0.70477 6.88759,-1.17284 13.72765,-3.72919 z m -5.20597,-2.30496 c 6.0381,-2.20561 12.94607,-6.09894 10.84351,-6.11139 -2.47049,-0.0146 -16.02055,6.21555 -17.88754,8.22452 -1.1,1.18365 -1.325,1.68916 -0.5,1.12337 0.825,-0.5658 4.21981,-2.02222 7.54403,-3.2365 z m -1.04403,-10.01377 6,-3.19415 -5.46346,0.52314 c -4.74993,0.45481 -5.99064,1.0588 -9.5,4.62467 l -4.03654,4.10154 3.5,-1.43052 c 1.925,-0.78679 6.2,-2.86789 9.5,-4.62468 z m 29,-8.10421 c 1.92824,-0.82859 1.92138,-0.86195 -0.19098,-0.92972 -1.20504,-0.0387 -2.4691,0.37972 -2.80902,0.92972 -0.731,1.18278 0.24752,1.18278 3,0 z m 3.5,116.83731 c -6.52069,-4.01527 -15.47825,-8.93975 -20.5036,-11.272 -5.41298,-2.51214 -23.407,-7.8899 -30.18525,-9.02127 -2.892004,-0.48271 -4.031142,-1.11016 -3.679448,-2.02666 0.55819,-1.45462 0.06318,-1.59301 -14.403159,-4.02664 -5.0993,-0.85784 -10.452099,-1.43169 -11.895108,-1.27523 -1.443008,0.15647 -2.820853,-0.27801 -3.061877,-0.96551 -0.537089,-1.532 6.577429,-1.71963 11.157444,-0.29425 1.689049,0.52566 7.120998,1.69334 12.070998,2.59484 4.95,0.90151 9.49648,2.04673 10.1033,2.54495 0.60681,0.49822 3.08181,1.09701 5.5,1.33064 4.50306,0.43507 10.59663,2.38409 7.8967,2.52575 -1.31498,0.069 -1.31824,0.19364 -0.0264,1.0106 0.97187,0.6146 1.73274,0.52427 2.23468,-0.26532 0.55325,-0.87028 0.76527,-0.88143 0.7764,-0.0408 0.009,0.67663 0.94878,0.95179 2.26531,0.66325 1.66349,-0.36458 1.88973,-0.23835 0.86792,0.48427 -1.03128,0.72931 -0.016,1.3798 4,2.56283 4.67488,1.37711 28.68435,14.19325 31.33208,16.72491 1.7717,1.69404 -0.87217,0.94881 -4.45,-1.25433 z m 271.55,-2.71522 c 0.5225,-0.48286 3.40756,-1.77619 6.41124,-2.87408 4.34221,-1.58715 5.61199,-2.55987 6.19699,-4.74727 0.43614,-1.63078 5.79064,-7.68864 13.14871,-14.87592 8.40311,-8.20805 13.27123,-13.82077 15.06985,-17.37482 2.52633,-4.992 4.29163,-7.15544 2.91822,-3.57639 -0.48654,1.2679 -0.23652,1.51792 1.03138,1.03138 1.9947,-0.76543 2.1187,-0.32699 0.42361,1.49777 -0.6875,0.74009 -4.175,4.70973 -7.75,8.82143 -3.575,4.11169 -6.95,7.66171 -7.5,7.88892 -1.64659,0.68021 -13.61708,12.44208 -14.67836,14.42254 -0.54103,1.0096 -0.74255,2.07677 -0.44783,2.37149 0.79855,0.79855 8.88613,-4.18068 14.33867,-8.82782 8.67414,-7.39286 9.28752,-7.8717 9.28752,-7.25039 0,1.40939 -11.01033,10.72521 -17.62382,14.91148 -8.6353,5.46606 -24.5519,12.02469 -20.82618,8.58168 z m 78.45,-0.85478 c 0,-3.60996 10.57014,-25.26414 12.33333,-25.26629 0.95948,-0.001 0.9991,-0.10522 -2.47506,6.49898 -1.44664,2.75 -3.8483,7.925 -5.33701,11.5 -2.72275,6.53841 -4.52126,9.42927 -4.52126,7.26731 z m -172,-3.91616 c 0,-0.52735 1.575,-2.48537 3.5,-4.35115 1.925,-1.86578 3.5,-3.92396 3.5,-4.57372 0,-0.64977 0.675,-1.74159 1.5,-2.42628 2.43172,-2.01815 1.72061,0.39841 -1.3536,4.59996 -3.30262,4.51371 -7.1464,8.14493 -7.1464,6.75119 z m -192,-9.42203 c -8.78382,-4.47775 -18.53311,-8.66574 -22.5,-9.66529 l -7,-1.76383 4.85695,-0.30916 c 4.17331,-0.26564 6.77729,0.5622 18.5,5.88144 7.50368,3.40483 14.00468,6.80962 14.44668,7.5662 0.44199,0.75657 2.57949,2.28157 4.75,3.38888 3.6443,1.85918 5.00958,3.09272 3.19637,2.88794 -0.4125,-0.0466 -7.725,-3.64037 -16.25,-7.98618 z m 238.89447,1.09652 c -6.43605,-3.86173 -14.62638,-11.62706 -13.47637,-12.77707 0.31547,-0.31547 3.43563,2.17471 6.93369,5.53372 3.49807,3.35902 7.52099,6.39866 8.93982,6.75476 3.42642,0.85998 19.12432,-0.1541 21.42215,-1.38386 0.99788,-0.53405 2.93301,-0.93539 4.30028,-0.89187 1.36728,0.0435 4.28596,-0.27706 6.48596,-0.71239 2.61263,-0.51698 3.65316,-0.45199 3,0.18739 -1.33433,1.30618 -20.53514,5.26368 -25.53806,5.26368 -2.17907,0 -3.96194,0.45 -3.96194,1 0,1.62207 -1.14569,1.20165 -8.10553,-2.97436 z m -246.89447,0.75489 c -1.925,-0.5715 -2.98634,-1.22714 -2.35854,-1.45697 0.62781,-0.22983 2.65281,0.24164 4.5,1.04771 3.90602,1.70449 2.88108,1.90037 -2.14146,0.40926 z m 256.50708,-4.76908 c -0.35034,-0.56686 0.0511,-0.7345 0.94098,-0.39301 1.73242,0.66479 2.04939,1.38156 0.61096,1.38156 -0.51754,0 -1.21592,-0.44485 -1.55194,-0.98855 z m 30.06825,0.11043 c -0.33438,-0.54102 -0.10618,-1.2938 0.50711,-1.67283 0.61328,-0.37903 1.72801,-2.09763 2.47717,-3.8191 1.20307,-2.7645 1.36668,-2.85937 1.40125,-0.81256 0.0328,1.93911 0.40642,2.20274 2.28914,1.61508 1.2375,-0.38627 3.72816,-1.9916 5.5348,-3.56739 1.80663,-1.57579 3.60663,-2.85383 4,-2.84008 1.20003,0.042 -7.18227,7.34611 -10.84572,9.45072 -4.83334,2.77671 -4.69187,2.73329 -5.36375,1.64616 z m -37.57533,-5.16719 c -2.475,-1.60431 -5.025,-2.92542 -5.66667,-2.93581 -0.64166,-0.0104 -1.31666,-0.43429 -1.5,-0.94201 -0.6339,-1.75553 -13.03578,-8.07687 -15.84606,-8.07687 -1.55133,0 -2.97464,-0.46212 -3.16291,-1.02693 -0.37386,-1.12158 -9.99745,-3.94214 -13.51534,-3.9612 -1.20504,-0.007 -2.44248,-0.41879 -2.74986,-0.91614 -0.30738,-0.49735 1.48,-4.76957 3.97194,-9.49382 2.49195,-4.72425 5.63031,-10.72983 6.97414,-13.34573 1.34382,-2.6159 2.45489,-4.18676 2.46904,-3.4908 0.0141,0.69595 -2.67428,6.65153 -5.97428,13.23462 -3.3,6.58308 -6,12.23246 -6,12.55417 0,0.32171 1.0125,0.44113 2.25,0.26538 3.1036,-0.44078 14.26084,-22.64806 13.30069,-26.47359 -0.38117,-1.51873 -1.15418,-2.32836 -1.93644,-2.02818 -0.92027,0.35314 -1.16363,-0.2242 -0.83005,-1.9692 0.36225,-1.89503 -0.0227,-2.59818 -1.65613,-3.02534 -1.45286,-0.37993 -2.12807,-1.3475 -2.12807,-3.04947 0,-3.08699 -12.38387,-16.34017 -13.80472,-14.77377 -0.4989,0.55 -1.95474,3.5875 -3.2352,6.75 -1.28046,3.1625 -2.70134,5.75 -3.15751,5.75 -0.8308,0 0.3448,-3.20854 3.76475,-10.27506 1.80839,-3.73661 1.80462,-3.79744 -0.37016,-5.97222 l -2.19716,-2.19717 v 2.6994 c 0,1.48466 -1.11385,5.65862 -2.47523,9.27546 -1.69691,4.50828 -2.19152,7.1096 -1.57299,8.27283 0.49622,0.93322 1.20952,2.59676 1.5851,3.69676 0.54372,1.59247 1.39627,0.43394 4.18395,-5.68559 3.92982,-8.62674 6.58639,-11.12794 5.18242,-4.87932 -0.46677,2.07742 -2.42887,7.52395 -4.36024,12.1034 -1.93137,4.57945 -3.32359,8.51426 -3.09383,8.74403 1.02956,1.02956 2.52551,-1.3368 6.15496,-9.73621 2.14272,-4.95876 4.45836,-9.02277 5.14586,-9.03112 0.6875,-0.008 1.25,0.46872 1.25,1.06017 0,2.36589 -8.43771,22.30797 -8.76983,20.72705 -0.19615,-0.93368 0.12182,-2.5916 0.7066,-3.68426 0.58478,-1.09267 1.04437,-2.35375 1.02131,-2.80241 -0.10909,-2.12321 -3.87949,6.5353 -3.91616,8.99328 -0.0258,1.72998 -0.45224,2.55542 -1.11009,2.14885 -0.5875,-0.3631 -0.79726,-1.36618 -0.46613,-2.22907 0.33112,-0.8629 0.0468,-1.91206 -0.63183,-2.33147 -1.50247,-0.92858 -1.64646,-7.76393 -0.18357,-8.71471 1.46851,-0.95443 3.62548,-5.24017 2.96816,-5.89749 -0.29897,-0.29897 -1.0927,0.66161 -1.76385,2.13463 -1.01588,2.22961 -1.36745,2.41523 -2.09891,1.10819 -0.48324,-0.86351 -1.27823,-1.32305 -1.76663,-1.02119 -0.48841,0.30185 -1.18584,-1.03869 -1.54983,-2.97897 -0.364,-1.94029 -1.09207,-3.52779 -1.61792,-3.52779 -0.52585,0 -0.71677,0.7875 -0.42426,1.75 1.32433,4.35767 4.6259,20.56038 4.26338,20.92289 -0.47627,0.47627 -5.11924,-19.32221 -6.72244,-28.66571 -1.30975,-7.63323 -2.90245,-11.71833 -7.14869,-18.33552 -2.34432,-3.65329 -2.80069,-5.04659 -1.84623,-5.63648 0.98833,-0.61082 0.86523,-1.41766 -0.5583,-3.65939 -2.71632,-4.27755 -7.43812,-10.45263 -10.80134,-14.12579 -1.63668,-1.7875 -2.51594,-3.25 -1.95392,-3.25 0.56202,0 2.07707,1.12322 3.36678,2.49606 3.57557,3.80602 3.57756,2.19836 0.004,-2.99606 -1.75603,-2.5523 -2.91691,-4.91643 -2.57973,-5.25361 0.33719,-0.33718 1.00378,-0.19306 1.48131,0.32028 2.16697,2.32939 10.54987,17.98043 14.42389,26.92965 2.34986,5.42831 4.75563,10.03071 5.34617,10.22756 1.78032,0.59344 2.27603,-3.63336 0.62029,-5.28909 -3.23159,-3.23159 -0.15218,-2.3956 7.8643,2.13499 4.58907,2.59357 8.49552,5.10662 8.68099,5.58456 0.18547,0.47794 3.42726,3.99603 7.20396,7.81796 3.77671,3.82193 7.57402,8.31668 8.43846,9.98833 0.86445,1.67165 1.96614,3.03937 2.44821,3.03937 0.48208,0 1.34853,1.2375 1.92546,2.75 0.57693,1.5125 2.13289,4.775 3.45769,7.25 1.32481,2.475 3.25929,6.1361 4.29887,8.13579 1.03957,1.99968 3.59643,6.44338 5.68192,9.87488 2.08548,3.4315 3.62366,6.40721 3.41817,6.6127 -0.20549,0.20549 -0.98085,-0.76102 -1.72303,-2.1478 -1.7587,-3.28615 -2.89997,-2.7806 -5.70732,2.52819 -1.65203,3.12403 -2.00122,4.6697 -1.22707,5.43146 0.76758,0.7553 1.42585,0.58131 2.26478,-0.5986 0.65047,-0.91486 1.76673,-2.48986 2.48057,-3.5 1.25825,-1.78052 1.28102,-1.78033 0.74573,0.006 -1.93866,6.4706 -2.24204,6.05827 6.39936,8.69731 4.42996,1.35288 8.05505,2.82385 8.05575,3.26881 7e-4,0.44496 -0.4103,0.55465 -0.91332,0.24377 -2.15931,-1.33453 -1.61514,2.18413 0.72644,4.69721 3.27235,3.51202 1.89746,3.4055 -3.81185,-0.29531 z m -16.22014,-18.97188 c 1.25392,-2.19054 2.73225,-3.98281 3.28518,-3.98281 0.65209,0 0.62923,-0.70274 -0.065,-2 -0.5887,-1.1 -1.49806,-2 -2.02079,-2 -1.16554,0 -7.10464,11.54124 -6.3351,12.31078 1.09686,1.09686 2.90051,-0.42309 5.13575,-4.32797 z m -3.40964,-3.84502 c 3.58827,-5.3009 4.3387,-7.1559 2.87978,-7.11864 -0.79813,0.0204 -8.25,12.31694 -8.25,13.61358 0,1.10269 1.25328,-0.41308 5.37022,-6.49494 z m -8.2639,0.11418 c 3.3611,-7.84113 5.13402,-11.34497 5.53672,-10.94227 0.42633,0.42634 -2.93281,8.70432 -5.25109,12.9403 -1.1806,2.15721 -1.22338,2.7412 -0.19849,2.70919 0.7186,-0.0224 3.29265,-3.23045 5.72011,-7.1289 3.47936,-5.58777 4.18698,-7.43123 3.34306,-8.70919 -0.58878,-0.89161 -1.6176,-1.4902 -2.28625,-1.33021 -0.76151,0.18221 -0.97665,-0.33218 -0.57581,-1.37675 0.64794,-1.68849 -0.90628,-4.41414 -2.51702,-4.41414 -0.48265,0 -0.89575,0.5625 -0.91799,1.25 -0.0222,0.6875 -2.01928,5.50071 -4.43786,10.69603 -2.41859,5.19531 -4.17383,9.80781 -3.90055,10.25 1.27832,2.06836 3.63401,0.37452 5.48517,-3.94406 z m -15.82029,-26.23777 c 0.2901,-1.10933 0.17374,-1.79835 -0.25858,-1.53116 -0.43232,0.26718 -1.02339,1.39343 -1.31349,2.50276 -0.29009,1.10933 -0.17373,1.79835 0.25859,1.53116 0.43232,-0.26718 1.02339,-1.39343 1.31348,-2.50276 z m 2.68334,-7.0142 c 0,-1.33333 -0.1077,-1.33333 -0.96937,0 -0.53316,0.825 -0.96937,2.175 -0.96937,3 0,1.33333 0.1077,1.33333 0.96937,0 0.53316,-0.825 0.96937,-2.175 0.96937,-3 z m -13.05362,-14.25 2.18241,-5.25 -2.15987,-1.75 c -2.93664,-2.37938 -3.49575,-2.2326 -4.95985,1.30205 -1.02408,2.47236 -1.01673,3.80191 0.0387,7 0.71662,2.17137 1.62092,3.94795 2.00955,3.94795 0.38864,0 1.6887,-2.3625 2.88902,-5.25 z m -21.73242,-31.96667 c -0.71756,-0.71756 -1.18333,-0.7766 -1.18333,-0.15 0,1.33478 1.18261,2.51739 1.85,1.85 0.28417,-0.28416 -0.0158,-1.04916 -0.66667,-1.7 z m 28.50681,93.01471 c -4.77489,-15.20866 -6.88985,-22.93166 -6.41102,-23.41049 0.21861,-0.21862 0.99227,1.40475 1.71924,3.60748 1.35435,4.10373 3.68481,5.72543 2.67422,1.86092 -0.42085,-1.60934 -0.27536,-1.85874 0.58337,-1 1.59693,1.59693 2.42865,1.42972 3.01396,-0.60595 0.27675,-0.9625 0.82113,-2.65 1.20972,-3.75 0.57775,-1.63543 0.32001,-1.54429 -1.41395,0.5 l -2.1205,2.5 1.27741,-2.97609 c 2.61795,-6.09928 11.77741,-21.96395 11.77741,-20.3991 0,0.8935 -2.25,6.86826 -5,13.27723 -2.75,6.40898 -5,12.09037 -5,12.62532 0,0.53495 -0.48214,0.97264 -1.07143,0.97264 -1.12442,0 -3.92857,2.44725 -3.92857,3.42857 0,0.31429 0.53177,0.45893 1.18171,0.32143 0.69422,-0.14687 1.66258,2.01886 2.34741,5.25 2.45167,11.56732 3.57657,18.22764 3.15053,18.65368 -0.24332,0.24332 -2.0386,-4.64172 -3.98951,-10.85564 z m 106.68084,0.83208 c 2.841,-2.50391 5.40121,-5.8354 6.1433,-7.99398 1.25327,-3.64552 5.64458,-10.81061 6.2528,-10.2024 0.17154,0.17155 -0.83088,2.46115 -2.22759,5.08802 -1.39672,2.62686 -2.53949,5.30449 -2.53949,5.95027 0,1.47354 -10.03702,11.54161 -11.45412,11.48955 -0.57523,-0.0211 1.14606,-1.97029 3.8251,-4.33146 z m -334.05569,-6.33125 c 0.34434,-0.55716 3.00177,-1.2618 5.90539,-1.56588 5.7131,-0.5983 9.95786,-1.96181 19.27932,-6.19293 l 6,-2.72347 -2.43976,2.60814 c -1.52651,1.63187 -5.45685,3.56815 -10.5,5.17282 -8.87925,2.82526 -19.2726,4.36409 -18.24495,2.70132 z m 229.68471,-5.81358 c 0,-1.51415 11.24347,-28.90698 12.30755,-29.98529 0.65057,-0.65927 0.71965,-0.31854 0.20272,1 -0.43125,1.1 -2.94159,7.79662 -5.57855,14.88137 -4.24034,11.39259 -6.93172,16.86873 -6.93172,14.10392 z m 136,-1.86285 c 0,-0.20765 0.7875,-0.99515 1.75,-1.75 1.58606,-1.24387 1.62143,-1.2085 0.37755,0.37756 -1.30636,1.66575 -2.12755,2.19548 -2.12755,1.37244 z M 73.291634,278.46943 c -0.766441,-1.24013 0.528936,-1.76696 7.088387,-2.88283 3.259811,-0.55455 8.626929,-1.50364 11.926929,-2.1091 3.3,-0.60545 7.8,-1.34094 10,-1.63442 4.1163,-0.5491 8.74902,-2.23329 14,-5.08958 2.61714,-1.4236 2.83827,-1.43283 1.73275,-0.0723 -0.69699,0.85774 -1.03031,2.17907 -0.74072,2.93628 0.5447,1.42422 -8.91132,3.71454 -30.49203,7.38542 -5.225,0.88877 -10.287052,1.77066 -11.249004,1.95976 -0.961953,0.18909 -1.981793,-0.0328 -2.266312,-0.49321 z m 400.479526,-2.81087 c 0.6588,-1.2846 1.47209,-2.06139 1.80729,-1.72619 0.3352,0.3352 -0.20383,1.38624 -1.19784,2.33565 -1.72775,1.65022 -1.75457,1.6234 -0.60945,-0.60946 z m -21.86101,-9.39292 c -0.52402,-1.37826 -1.40836,-4.92817 -1.96521,-7.88868 -0.55685,-2.96051 -1.7157,-7.35183 -2.57522,-9.75848 -0.85953,-2.40665 -1.53803,-5.10665 -1.50779,-6 0.0912,-2.6945 6.10864,14.99812 6.92998,20.37573 0.8664,5.67261 0.51991,6.95812 -0.88176,3.27143 z m -219.0176,-12.77143 c 0.0302,-0.825 0.44171,-2.4 0.9144,-3.5 l 0.85943,-2 0.055,2 c 0.0302,1.1 -0.38124,2.675 -0.9144,3.5 -0.86167,1.33333 -0.96327,1.33333 -0.9144,0 z m -198.967286,-17.75 c 0.08062,-5.28104 0.337266,-6.79427 0.805595,-4.75 0.378004,1.65 1.224762,2.8875 1.881685,2.75 0.656923,-0.1375 1.194406,0.425 1.194406,1.25 0,0.825 -0.45,1.5 -1,1.5 -1.539014,0 -1.187385,2.13546 0.693933,4.21429 1.59191,1.75904 1.59191,1.83263 0,1.22175 -0.963233,-0.36962 -1.693933,-0.1725 -1.693933,0.45697 0,0.60884 -0.45,1.10699 -1,1.10699 -0.590823,0 -0.951589,-3.17112 -0.881686,-7.75 z m 303.960636,5.16667 c 0.048,-1.16495 0.28494,-1.4019 0.60416,-0.60417 0.28887,0.72187 0.25335,1.58437 -0.0789,1.91667 -0.3323,0.33229 -0.56864,-0.25834 -0.52522,-1.3125 z m 107,-2.08488 c -0.0434,-0.64252 -0.33793,-1.99252 -0.65446,-3 -0.54705,-1.74122 -0.51883,-1.7434 0.57078,-0.0441 0.63045,0.98322 0.92496,2.33322 0.65445,3 -0.35498,0.87499 -0.51379,0.88727 -0.57077,0.0441 z m 29.92614,-4.81926 c -1.24101,-3.05764 -3.53958,-7.33075 -5.10793,-9.4958 -1.65407,-2.28338 -2.23122,-3.69842 -1.37436,-3.36961 2.05742,0.78951 1.9248,-0.0109 -1.94801,-11.75786 -1.88387,-5.71409 -5.00249,-17.18348 -6.93027,-25.48753 -1.92778,-8.30404 -4.67434,-17.97587 -6.10345,-21.49294 -1.5409,-3.79216 -2.00519,-5.78708 -1.14083,-4.90174 0.80166,0.82112 3.33886,6.21795 5.63821,11.99295 5.05053,12.68479 5.55589,14.24366 3.56605,11 -1.01046,-1.64718 -1.54572,-1.96797 -1.56906,-0.94039 -0.0777,3.4179 7.46267,31.44797 8.99575,33.44039 0.42321,0.55 2.66861,6.53321 4.98978,13.29602 4.35313,12.68294 4.9732,17.54499 0.98412,7.71651 z m -30.92614,-2.09586 c 0.048,-1.16495 0.28494,-1.4019 0.60416,-0.60417 0.28887,0.72187 0.25335,1.58437 -0.0789,1.91667 -0.3323,0.33229 -0.56864,-0.25834 -0.52522,-1.3125 z m -1.23126,-4.16667 c -0.0838,-0.4125 -0.23557,-1.2 -0.33732,-1.75 -1.34504,-7.27045 -1.98068,-9.78689 -3.62004,-14.33145 -2.67827,-7.42459 -4.81915,-11.33058 -5.85831,-10.68834 -0.48555,0.30008 -1.44786,-2.0477 -2.13847,-5.2173 -0.69061,-3.1696 -2.07418,-7.71272 -3.0746,-10.09582 -1.00042,-2.38309 -1.81895,-5.41955 -1.81895,-6.74768 0,-1.32813 -1.575,-4.60707 -3.5,-7.28653 -1.925,-2.67946 -3.5,-5.22121 -3.5,-5.64833 0,-1.46356 5.35403,5.00036 9.67716,11.68324 4.44183,6.86635 5.80083,10.27857 2.32284,5.83221 -1.79075,-2.28935 -1.95637,-2.33148 -1.96556,-0.5 -0.006,1.1 1.59143,5.6 3.54877,10 6.51395,14.64308 10.28935,25.05857 10.98554,30.30673 0.3789,2.8563 0.40594,5.19327 0.0601,5.19327 -0.34586,0 -0.69737,-0.3375 -0.78114,-0.75 z m -395.83673,-5.5 c 1.08986,-1.7875 1.983246,-3.87468 1.985302,-4.63817 0.0021,-0.76349 1.703833,-3.23849 3.781728,-5.5 2.077895,-2.26151 4.516932,-5.17311 5.420083,-6.47024 0.903151,-1.29712 2.128055,-2.05807 2.722009,-1.69098 0.593955,0.36708 1.136168,0.19087 1.204918,-0.39159 0.51023,-4.32274 2.217669,-6.18607 15.418259,-16.8259 13.410672,-10.80917 16.728586,-12.9051 28.253311,-17.84766 4.19601,-1.79953 6.12516,-3.14705 5.78276,-4.03932 -0.3115,-0.81177 0.94973,-2.1319 3.20344,-3.35301 2.04448,-1.10774 4.39223,-2.4222 5.21723,-2.92102 0.825,-0.49882 3.00781,-1.46746 4.85068,-2.15255 1.84288,-0.68509 4.99151,-2.3591 6.99696,-3.72004 2.09534,-1.42194 5.34895,-2.5693 7.64932,-2.69748 4.36875,-0.24343 7.61745,-0.93447 14.50304,-3.08497 2.475,-0.773 7.2,-1.61237 10.5,-1.86529 3.3,-0.25291 9.6,-1.42674 14,-2.60851 5.4939,-1.47558 12.07241,-2.28971 21,-2.59886 7.15,-0.2476 13.4275,-0.87638 13.95,-1.39729 0.5225,-0.52092 2.37875,-0.94712 4.125,-0.94712 4.92605,0 9.42528,-1.13408 9.42229,-2.375 -0.001,-0.61875 -1.75869,-3.15 -3.90489,-5.625 l -3.9022,-4.5 -0.70351,2.75 c -0.38693,1.5125 -1.13505,2.75 -1.66249,2.75 -1.62931,0 0.16048,-4.19643 4.83882,-11.34532 2.46382,-3.76492 4.33507,-6.98729 4.15833,-7.16081 -0.17674,-0.17353 -1.90844,-0.61188 -3.84822,-0.97412 -2.77314,-0.51786 -4.12183,-0.19062 -6.31079,1.53121 -1.53116,1.20441 -2.55998,2.77341 -2.28627,3.48668 0.2737,0.71326 -0.11744,1.53287 -0.8692,1.82135 -0.75177,0.28848 -1.67178,2.55792 -2.04447,5.04319 -0.56431,3.76305 -0.25334,5.2778 1.85959,9.05825 1.75135,3.13351 2.12971,4.53957 1.22155,4.53957 -0.72361,0 -2.05437,-1.4625 -2.95724,-3.25 -0.90288,-1.7875 -2.17724,-4.0183 -2.83192,-4.95734 -1.13644,-1.63004 -0.50664,-5.84388 1.61307,-10.79266 0.47245,-1.103 -1.556,-2.75719 -7.66406,-6.25 -4.5686,-2.6125 -9.01689,-4.75 -9.88508,-4.75 -0.86819,0 -7.32024,-2.03684 -14.33789,-4.5263 -12.86836,-4.564968 -21.4573,-6.964667 -19.85128,-5.546332 0.47897,0.422996 5.49423,2.247938 11.14501,4.055422 5.65078,1.80749 10.51484,3.67579 10.80902,4.15178 0.85405,1.38188 -0.65329,1.0509 -9.63122,-2.11484 -4.64857,-1.63915 -9.24556,-2.989149 -10.21552,-3 -0.96996,-0.01085 -2.54496,-0.451944 -3.5,-0.980205 -3.0292,-1.675545 -18.4377,-5.038766 -23.17682,-5.058815 -2.50779,-0.01061 -6.80961,-0.674472 -9.55961,-1.475249 l -5,-1.45596 5,0.46729 c 2.75,0.257009 7.925,0.53415 11.5,0.615868 6.80375,0.155522 27.23116,3.256221 31.19606,4.735286 1.26717,0.472704 4.55394,1.173838 7.30394,1.558077 8.45875,1.181883 19.6579,5.845478 31.31335,13.039638 l 6.24372,3.85384 2.97147,-2.84684 c 1.65869,-1.58913 2.97146,-3.89393 2.97146,-5.21693 0,-2.9458 2.02496,-11.160814 2.87299,-11.655413 1.27953,-0.746256 18.21014,4.124837 19.39624,5.580483 0.67692,0.83075 2.73436,2.10154 4.57209,2.82397 2.7164,1.06786 3.0437,1.48007 1.75,2.20406 -2.3216,1.29924 -1.94698,3.30809 0.85499,4.58475 3.9077,1.78047 10.40224,8.13054 10.7421,10.50315 0.22413,1.56472 2.6321,3.44231 8.57891,6.68928 4.54702,2.4827 9.16466,5.30149 10.26143,6.26399 1.37029,1.20255 3.67654,1.75 7.37221,1.75 6.69302,0 20.31726,2.53288 26.46611,4.92031 2.54811,0.98937 5.17286,1.60706 5.83277,1.37265 2.22609,-0.79072 20.09409,8.58914 24.50129,12.86204 l 4.29887,4.16787 -2.5,0.68471 c -2.5221,0.69077 -22.8831,0.35696 -30.75,-0.50413 -2.3375,-0.25585 -4.25,-0.11888 -4.25,0.30439 0,1.13597 9.38049,6.56413 18.36161,10.62523 6.30574,2.85133 8.61616,3.43421 11.67422,2.94521 2.68981,-0.43012 3.65617,-1.01734 3.2814,-1.99397 -0.42255,-1.10116 0.9736,-1.38673 6.82578,-1.39614 11.01928,-0.0177 32.74637,-5.88029 37.78664,-10.1959 1.04572,-0.89538 2.17303,-1.35626 2.50511,-1.02417 0.91843,0.91842 -5.31332,6.2319 -7.30889,6.2319 -0.96288,0 -5.76685,1.35755 -10.67548,3.01677 -4.90864,1.65922 -14.32134,3.93751 -20.91712,5.06286 -6.59578,1.12535 -12.15095,2.20472 -12.34482,2.39859 -0.19388,0.19387 2.37907,1.85309 5.71766,3.68714 3.69743,2.03118 6.0748,3.99562 6.08202,5.02562 0.007,0.93004 0.46187,1.9691 1.01187,2.30902 0.55,0.33992 1,1.13148 1,1.75902 0,0.82185 -0.33563,0.80535 -1.2,-0.059 -0.66,-0.66 -1.9725,-1.2 -2.91667,-1.2 -0.94416,0 -1.86666,-0.3375 -2.05,-0.75 -0.48699,-1.09574 -11.37135,-9.25 -12.34696,-9.25 -0.45589,0 -1.53932,-0.63184 -2.40763,-1.40408 -0.86831,-0.77225 -5.40374,-3.32005 -10.07874,-5.66179 -4.675,-2.34174 -9.04693,-5.02624 -9.71539,-5.96556 -0.66847,-0.93931 -2.80597,-2.46262 -4.75,-3.38513 -4.56047,-2.16408 -4.48601,-3.18398 0.21539,-2.95065 18.21711,0.90414 35.25,1.07256 35.25,0.34855 0,-1.50941 -6.35892,-5.81638 -13.06904,-8.85183 -14.16597,-6.40824 -23.77696,-9.12281 -36.80748,-10.39604 -14.72467,-1.43878 -55.96243,-1.65882 -58.059,-0.30979 -0.78954,0.50802 -3.82862,0.81282 -6.75351,0.67733 -3.77459,-0.17484 -5.47151,0.15377 -5.847,1.13229 -0.37726,0.98312 -2.74307,1.43115 -8.2465,1.5617 -19.73568,0.46813 -26.61079,1.4411 -41.59826,5.88701 -8.18444,2.42784 -15.60944,4.23862 -16.5,4.02395 -0.89057,-0.21467 0.51829,-0.96476 3.13079,-1.66685 2.6125,-0.7021 4.75,-1.67312 4.75,-2.15783 0,-1.17423 -3.3501,-1.12919 -4.55,0.0612 -0.5225,0.51836 -6.573,2.81365 -13.44556,5.10066 -9.61582,3.19989 -14.68598,5.5934 -22,10.38571 -10.40623,6.81838 -22.482238,13.98899 -26.159464,15.53322 -3.797055,1.59455 -21.333669,14.53194 -21.469976,15.83917 -0.260964,2.50272 -0.431777,2.65743 -1.342983,1.21635 -0.782913,-1.23818 -1.437737,-1.00304 -3.974257,1.4271 -3.715081,3.55927 -3.125067,4.83352 0.696183,1.50354 1.510331,-1.31616 -1.835276,2.14566 -7.434683,7.69294 -6.286276,6.22776 -11.014426,11.85956 -12.360127,14.72241 -1.198663,2.55005 -2.573216,4.63645 -3.054562,4.63645 -0.481346,0 0.01653,-1.4625 1.106389,-3.25 z m 298.81967,-38.6496 c -1.22038,-1.95414 -7.86006,-5.64678 -7.79331,-4.33422 0.0413,0.8118 7.01748,6.03707 8.22115,6.15777 0.41716,0.0418 0.22463,-0.77877 -0.42784,-1.82355 z m -9.85069,-6.62457 c -0.69572,-0.83829 -1.52528,-1.26382 -1.84348,-0.94562 -0.3182,0.31819 0.0834,0.99718 0.8925,1.50885 2.11697,1.33881 2.39358,1.17499 0.95098,-0.56323 z m -214.97994,-16.0462 c 0,-0.275 -0.9,-0.0183 -2,0.57037 -1.1,0.5887 -2,1.29537 -2,1.57037 0,0.275 0.9,0.0183 2,-0.57037 1.1,-0.5887 2,-1.29537 2,-1.57037 z m 127.75,-26.48776 c 6.1875,-0.0204 11.25,-0.18672 11.25,-0.36956 0,-0.18283 -1.82198,-3.92327 -4.04885,-8.31208 -4.5148,-8.89798 -8.92797,-13.86684 -11.45483,-12.89719 -0.8927,0.34256 -1.3245,1.10595 -0.95956,1.69643 0.36493,0.59048 -0.044,1.60616 -0.90875,2.25706 -1.38615,1.04337 -1.09263,1.93364 2.47947,7.52053 2.22845,3.48538 3.85842,6.53037 3.62214,6.76665 -0.23628,0.23628 -2.32506,-2.50132 -4.64173,-6.08355 -4.88693,-7.55656 -9.76154,-11.65747 -14.10949,-11.87003 -2.73243,-0.13358 -3.40217,0.44426 -6.07563,5.24196 l -3.00468,5.3921 2.4215,2.6079 c 1.33183,1.43435 3.18894,3.81859 4.12692,5.29831 1.71004,2.69771 4.3194,3.70476 8.05349,3.10814 1.1,-0.17575 7.0625,-0.33625 13.25,-0.35667 z m 22.10676,-1.10555 c -2.6882,-1.81031 -8.79796,-4.83632 -9.7649,-4.83632 -0.64154,0 -0.62776,1.03286 0.0393,2.94637 0.8858,2.54101 1.60093,2.98912 5.19798,3.25709 4.89467,0.36465 6.41676,-0.0949 4.52763,-1.36714 z m -29.04492,-21.0978 c 0.24314,-1.26252 -0.32413,-1.73852 -2.07185,-1.73852 -3.10213,0 -4.01747,0.96073 -2.57328,2.70088 1.50221,1.81004 4.21964,1.24705 4.64513,-0.96236 z m -9.14326,-2.1901 c -1.74183,-1.32008 -1.7212,-1.40413 0.42167,-1.7182 3.43345,-0.50322 3.64238,-2.85013 0.24308,-2.73054 -10.08154,0.35468 -10.36078,5.17188 -0.33333,5.7502 1.1511,0.0664 1.07401,-0.23633 -0.33142,-1.30146 z m 9.68076,-3.08045 c -0.72349,-1.88536 -3.96715,-1.90632 -4.68706,-0.0303 -0.35811,0.93322 0.21841,1.56528 1.64301,1.80128 2.90881,0.48189 3.7261,0.006 3.04405,-1.771 z m -19.60218,-0.71797 c 0.54563,-0.6875 1.29613,-2.9375 1.66776,-5 0.60241,-3.343253 0.45117,-3.750001 -1.39436,-3.750001 -2.23259,0 -4.02056,3.364241 -4.02056,7.565101 0,2.61449 2.08846,3.27489 3.74716,1.1849 z m 13.00284,-2.29327 c 2.29451,-0.72316 1.28731,-2.54319 -2.21788,-4.007757 -5.0781,-2.121763 -6.0786,-1.833317 -7.28594,2.100537 l -1.08937,3.54952 4.67159,-0.62416 c 2.56938,-0.3433 5.2341,-0.80145 5.9216,-1.01814 z m -86.31743,117.65237 c 0.71346,-1.15439 4.56743,-3.48267 4.56743,-2.75929 0,0.23109 -1.18041,1.1936 -2.62312,2.13891 -1.44272,0.9453 -2.31766,1.22448 -1.94431,0.62038 z m 45.56743,0.009 c 0,-0.55 0.45,-1.27811 1,-1.61803 0.55,-0.33992 1,-0.16803 1,0.38197 0,0.55 -0.45,1.27811 -1,1.61803 -0.55,0.33992 -1,0.16803 -1,-0.38197 z m -130,-1.04537 c 0,-2.40356 11.737625,-22.66837 12.619186,-21.78681 0.261147,0.26115 -0.722074,2.66617 -2.184935,5.34448 -9.902736,18.13068 -10.434251,18.96825 -10.434251,16.44233 z m 392.5,-12.7843 c -4.95,-6.4352 -11.60445,-14.49564 -14.78767,-17.91207 -3.18322,-3.41643 -5.43322,-6.42701 -5,-6.69016 1.19039,-0.72311 21.14669,23.43091 27.73081,33.56387 3.65624,5.62694 0.79802,2.40224 -7.94314,-8.96164 z m -98.34188,3.43348 c 0.17389,-2.58205 -0.56699,-4.45028 -2.96615,-7.47945 -4.39242,-5.54588 -9.95527,-8.82105 -29.41789,-17.32001 -17.79202,-7.76943 -22.02731,-10.52509 -6.83346,-4.44614 5.14344,2.05786 9.91678,3.3864 10.96812,3.05272 2.12529,-0.67454 7.28265,1.35235 6.53189,2.56709 -0.66755,1.08014 3.08464,3.02476 4.08821,2.11877 0.4355,-0.39315 0.5146,-0.22755 0.17579,0.368 -0.34479,0.60606 1.22329,2.01691 3.56141,3.20432 3.67552,1.86661 4.3705,1.94677 5.78443,0.66718 1.79391,-1.62346 3.94953,-1.92982 3.94953,-0.56131 0,0.49116 -0.68521,1.15595 -1.5227,1.47733 -1.24531,0.47787 -0.95894,1.36265 1.57205,4.85698 1.7021,2.34998 3.73732,4.63254 4.52269,5.07237 1.66201,0.93076 1.97222,8.2459 0.39113,9.22307 -0.65363,0.40397 -0.95117,-0.63123 -0.80505,-2.80092 z m -109.96775,-2.47184 c 0.18536,-0.9625 0.99969,-1.75 1.80963,-1.75 0.80994,0 1.62427,0.7875 1.80963,1.75 0.23646,1.22785 -0.30348,1.75 -1.80963,1.75 -1.50615,0 -2.04609,-0.52215 -1.80963,-1.75 z m -62.19037,-0.24373 c 0,-0.54655 0.8884,-0.85814 1.97423,-0.69243 3.13184,0.47795 3.628,1.68616 0.69244,1.68616 -1.46667,0 -2.66667,-0.44718 -2.66667,-0.99373 z m 7,-1.00627 c 1.95837,-1.2656 3.28218,-1.2656 2.5,0 -0.33992,0.55 -1.37898,0.99311 -2.30902,0.98469 -1.45727,-0.0132 -1.48367,-0.14929 -0.19098,-0.98469 z m 342.24575,-4.74355 c -1.52362,-5.32561 -2.5741,-10.84619 -1.95165,-10.25645 0.76839,0.72802 3.89002,13.14922 3.42216,13.61707 -0.2177,0.2177 -0.87943,-1.29458 -1.47051,-3.36062 z M 178.865,192.06291 c 3.70401,-5.15775 8.94195,-10.38875 8.94195,-8.93011 0,0.55703 -1.15308,2.09605 -2.56241,3.42004 -1.40932,1.32399 -3.44343,3.83278 -4.52023,5.57509 -1.07681,1.74231 -2.64832,3.4328 -3.49226,3.75665 -0.90776,0.34834 -0.24086,-1.21244 1.63295,-3.82167 z m -75.05805,-4.3627 c 0,-2.33245 18.24733,-14.49052 30.28172,-20.17649 8.97477,-4.24038 9.59415,-3.75147 1.10827,0.87481 -6.25536,3.41025 -22.77274,14.00125 -29.13999,18.68465 -1.2375,0.91023 -2.25,1.1879 -2.25,0.61703 z m 100,-1.0818 c 0,-1.16672 4.85659,-4.34262 6.02079,-3.93721 0.49435,0.17216 -0.65809,1.32965 -2.56098,2.5722 -1.9029,1.24256 -3.45981,1.85681 -3.45981,1.36501 z m 39,-3.1242 -2.5,-0.80064 2.69098,-0.0997 c 1.48004,-0.0548 2.9691,0.35032 3.30902,0.90032 0.70254,1.13674 0.0495,1.13674 -3.5,0 z m 85.5,0 c -0.33992,-0.55 -0.16803,-1 0.38197,-1 0.55,0 1.27811,0.45 1.61803,1 0.33992,0.55 0.16803,1 -0.38197,1 -0.55,0 -1.27811,-0.45 -1.61803,-1 z m -10,-4 c -3.3,-1.56575 -5.325,-2.84681 -4.5,-2.84681 0.825,0 4.2,1.28106 7.5,2.84681 3.3,1.56575 5.325,2.84681 4.5,2.84681 -0.825,0 -4.2,-1.28106 -7.5,-2.84681 z m 211.20795,0.28966 c -0.30032,-0.98431 -1.00106,-3.25216 -1.55719,-5.03966 -0.55613,-1.7875 -0.64598,-3.25 -0.19967,-3.25 0.87987,0 3.40746,8.97478 2.72094,9.6613 -0.22991,0.22991 -0.66375,-0.38732 -0.96408,-1.37164 z m -418.70795,-7.17369 c 0,-0.48621 5.2875,-3.12748 11.75,-5.86949 13.94111,-5.91515 17.83655,-7.26942 20.64922,-7.1788 2.56311,0.0826 3.74397,-0.47643 -16.65526,7.8844 -15.94481,6.53515 -15.74396,6.46927 -15.74396,5.16389 z m -45.710251,-7.11597 c -0.287657,-1.1 -0.906405,-2 -1.374996,-2 -0.468591,0 -0.661953,-0.5625 -0.429693,-1.25 0.232261,-0.6875 0.911079,-6.425 1.508485,-12.75 2.076487,-21.98467 3.356886,-30.14176 5.179937,-33 1.018958,-1.59756 0.94223,-0.72099 -1.7944,20.5 -0.851128,6.6 -1.622109,16.16221 -1.713293,21.24935 -0.168498,9.40044 -0.439893,10.83048 -1.37604,7.25065 z m 288.710251,-0.786 c 0,-0.49721 0.96548,-1.76127 2.14551,-2.80901 2.13061,-1.89176 2.13752,-1.88975 0.99462,0.28932 -1.27489,2.43073 -3.14013,3.92743 -3.14013,2.51969 z m 175.09122,-1.60269 c -0.63095,-1.58878 -0.94605,-3.08982 -0.70022,-3.33565 0.73563,-0.73563 2.77505,3.7378 2.29305,5.02978 -0.24511,0.65701 -0.96189,-0.10535 -1.59283,-1.69413 z M 416.4421,158.9096 c -3.89893,-4.55888 -4.72132,-7.33034 -0.93811,-3.16145 2.17855,2.40065 5.77458,7.76777 5.16797,7.71327 -0.20076,-0.018 -2.10419,-2.06636 -4.22986,-4.55182 z m -68.61141,1.97587 c -0.0523,-4.64386 13.21296,-36.4879 14.61547,-35.08538 0.27955,0.27954 -0.28914,2.01258 -1.26374,3.85119 -2.2737,4.28941 -8.33519,19.03344 -8.36328,20.34293 -0.0458,2.13638 -4.96608,12.87874 -4.98845,10.89126 z m 5.97626,-3.14437 c 0,-1.47291 4.69738,-5.09317 8.87212,-6.83773 5.09343,-2.12847 5.14236,-1.67801 0.12788,1.17722 -2.475,1.40926 -5.5125,3.50728 -6.75,4.66227 -1.2375,1.15499 -2.25,1.6042 -2.25,0.99824 z m 141.08594,-4.76119 c -7.90802,-4.70789 -10.21626,-6.4857 -8.4208,-6.4857 0.58583,0 2.13833,0.83924 3.45,1.86497 1.31167,1.02574 4.71551,3.04218 7.56409,4.48099 4.75273,2.40059 7.59628,4.72592 5.62979,4.6038 -0.44496,-0.0276 -4.14535,-2.03646 -8.22308,-4.46406 z m 27.99301,2.93097 c 0.048,-1.16495 0.28494,-1.4019 0.60416,-0.60417 0.28887,0.72187 0.25335,1.58437 -0.0789,1.91667 -0.3323,0.33229 -0.56864,-0.25834 -0.52522,-1.3125 z m -160.07895,-0.82561 c 0,-0.19039 0.675,-0.90637 1.5,-1.59106 0.86459,-0.71755 1.5,-0.81474 1.5,-0.22943 0,0.5585 -0.675,1.27447 -1.5,1.59106 -0.825,0.31658 -1.5,0.41982 -1.5,0.22943 z m 86,-1.59106 c -0.5887,-1.1 -0.84537,-2 -0.57037,-2 0.275,0 0.98167,0.9 1.57037,2 0.5887,1.1 0.84537,2 0.57037,2 -0.275,0 -0.98167,-0.9 -1.57037,-2 z m 76.5516,-0.25 c -0.42263,-1.5125 -1.16963,-2.75 -1.66001,-2.75 -0.49037,0 -0.89159,-0.62062 -0.89159,-1.37916 0,-0.75853 -1.17118,-3.93735 -2.60263,-7.06404 -1.43144,-3.12668 -2.34095,-5.94655 -2.02113,-6.26637 0.86641,-0.86641 8.76159,16.81978 8.32193,18.64214 -0.24259,1.00549 -0.65365,0.58152 -1.14657,-1.18257 z m -433.9266,-2.875 c -0.902361,-4.51181 -0.79423,-6.44933 0.297184,-5.325 1.386837,1.42867 2.478764,8.45 1.314107,8.45 -0.54246,0 -1.267541,-1.40625 -1.611291,-3.125 z m 276.375,0.81086 c 0,-0.29929 2.10282,-1.96334 4.67294,-3.69789 4.46632,-3.01429 5.14748,-3.16112 15.40537,-3.32085 5.90284,-0.0919 10.5215,0.17356 10.26368,0.58994 -0.51899,0.83821 -0.32837,0.91511 8.01549,3.23366 3.22162,0.8952 5.63021,1.85492 5.35242,2.13271 -0.27778,0.27778 -4.71365,-0.64853 -9.85748,-2.05847 -10.56958,-2.89716 -23.07487,-3.4747 -26.37991,-1.21831 -4.91885,3.35815 -7.47251,4.84103 -7.47251,4.33921 z m 77.5156,-3.96663 c -1.0336,-1.77058 -4.05084,-6.10333 -6.70499,-9.62834 -2.65415,-3.52501 -4.56357,-6.67126 -4.24316,-6.99167 0.3204,-0.32041 1.01031,0.1818 1.53313,1.11602 0.52281,0.93422 2.41593,3.63047 4.20694,5.99167 4.27742,5.63922 8.02669,11.79221 7.50398,12.31492 -0.22915,0.22915 -1.2623,-1.03202 -2.2959,-2.8026 z M 90.260981,140.74421 c -3.117771,-14.67946 -6.481314,-25.38009 -10.447364,-33.23679 -3.330093,-6.59688 -3.719816,-8.500849 -1.571275,-7.676377 0.789466,0.302947 1.615713,0.238587 1.836105,-0.143011 0.220392,-0.381602 0.275414,-0.162139 0.122271,0.487698 -0.153143,0.64983 0.53329,2.89983 1.525407,5 2.560081,5.41931 8.76352,26.83093 9.580699,33.06848 0.717757,5.47865 -0.03237,7.27176 -1.045843,2.5 z M 32.80695,134.6492 c 0,-1.01476 0.9,-2.6595 2,-3.65499 2.39396,-2.1665 2.531319,-1.42814 0.474319,2.54966 -1.758259,3.4001 -2.474319,3.71998 -2.474319,1.10533 z m 450.27236,-2.15499 c 0,-2.475 0.19502,-3.4875 0.43337,-2.25 0.23836,1.2375 0.23836,3.2625 0,4.5 -0.23835,1.2375 -0.43337,0.225 -0.43337,-2.25 z m -443.103981,-7.25 c 3.237483,-4.56564 10.549216,-11.75 11.958315,-11.75 0.648629,0 0.210471,0.84028 -0.973685,1.86729 -1.184155,1.02702 -2.153009,2.51739 -2.153009,3.31195 0,0.79455 -1.4625,2.51372 -3.25,3.82037 -1.7875,1.30665 -3.838017,3.19127 -4.556704,4.18806 -0.718688,0.99678 -1.76183,1.81233 -2.318095,1.81233 -0.556264,0 0.02567,-1.4625 1.293178,-3.25 z m 327.831621,1.21122 c -1.04548,-0.70267 0.16657,-0.80849 4,-0.34922 3.025,0.36241 5.6875,0.82297 5.91667,1.02347 1.00782,0.88172 -8.57056,0.23047 -9.91667,-0.67425 z m -198.26879,-2.04138 c 0.35361,-1.3522 0.8069,-1.8055 1.05655,-1.05655 0.24048,0.72144 -0.0382,1.78716 -0.61931,2.36826 -0.74207,0.74207 -0.87221,0.35164 -0.43724,-1.31171 z m 210.01879,1.41788 c 0.6875,-0.27741 1.8125,-0.27741 2.5,0 0.6875,0.27741 0.125,0.50438 -1.25,0.50438 -1.375,0 -1.9375,-0.22697 -1.25,-0.50438 z m 131.25,-1.33772 c -0.5887,-1.1 -0.84537,-2 -0.57037,-2 0.275,0 0.98167,0.9 1.57037,2 0.5887,1.1 0.84537,2 0.57037,2 -0.275,0 -0.98167,-0.9 -1.57037,-2 z m -128.3917,0.11692 c -1.44687,-0.56791 -0.27115,-1.27143 5,-2.99187 8.4867,-2.76996 17.43399,-8.44811 27.77251,-17.62505 11.60619,-10.302182 15.06203,-12.838158 9.61919,-7.058775 -7.15244,7.594695 -23.48335,20.210035 -30.4934,23.555625 -3.53581,1.68748 -6.69782,3.50353 -7.02669,4.03565 -0.68873,1.11439 -2.18163,1.14026 -4.87161,0.0844 z m 122.73395,-7.86692 c -4.3067,-5.15178 -5.74209,-7.25 -4.95971,-7.25 0.27531,0 2.57817,2.7 5.11746,6 5.5144,7.16637 5.41914,7.92121 -0.15775,1.25 z M 57.80695,120.1012 c 0,-0.21616 0.698372,-0.661 1.551937,-0.98855 0.889926,-0.34149 1.291322,-0.17385 0.940983,0.39301 -0.587258,0.95021 -2.49292,1.40545 -2.49292,0.59554 z m 5,-3 c 0,-0.21616 0.698372,-0.661 1.551937,-0.98855 0.889926,-0.34149 1.291322,-0.17385 0.940983,0.39301 -0.587258,0.95021 -2.49292,1.40545 -2.49292,0.59554 z m -30,-3.10699 c 0,-0.825 0.7301,-1.5 1.622444,-1.5 1.328791,0 1.397126,0.27149 0.377556,1.5 -0.68469,0.825 -1.41479,1.5 -1.622445,1.5 -0.207656,0 -0.377555,-0.675 -0.377555,-1.5 z m 12,-0.93613 c 0,-0.23987 2.705759,-2.33411 6.012798,-4.65387 3.307039,-2.31976 5.851132,-4.3794 5.65354,-4.577 -0.364037,-0.36403 -4.731849,1.32161 -12.361474,4.77059 -4.430461,2.00279 -7.396723,2.53108 -5.754864,1.02494 0.5225,-0.47931 6.463008,-3.00714 13.201129,-5.61739 6.738122,-2.61024 14.725622,-6.517848 17.75,-8.683558 3.024379,-2.16571 5.498644,-4.025388 5.498366,-4.132619 -2.77e-4,-0.10723 -0.900277,-2.562291 -2,-5.45569 -1.099722,-2.8934 -1.999495,-6.525737 -1.999495,-8.071861 0,-4.002676 2.97869,-12.222005 4.663572,-12.868555 2.269707,-0.870968 2.868122,0.591873 0.84676,2.069929 -2.656501,1.94248 -2.748557,19.252633 -0.112637,21.180065 1.406177,1.028222 2.235027,1.002815 4.416667,-0.135386 3.161335,-1.649324 5.185638,-1.810728 5.185638,-0.413466 0,0.55 -0.799873,1 -1.777494,1 -2.35547,0 -6.40801,2.890832 -5.687298,4.056968 0.312767,0.506068 -0.04778,0.683571 -0.801213,0.394451 -1.906397,-0.731553 -6.983256,3.456636 -6.311643,5.206832 0.310342,0.808736 -0.20036,1.649615 -1.189211,1.95806 -3.640749,1.13561 -11.636732,4.93519 -12.774076,6.07007 -0.653929,0.6525 -3.362836,2.565 -6.019794,4.25 -4.530053,2.87287 -6.439271,3.65191 -6.439271,2.62749 z M 74.194835,96.618094 c 0.933824,-1.031863 3.16649,-2.11444 4.961481,-2.405727 1.794991,-0.291287 5.038198,-1.312738 7.207127,-2.26989 2.168928,-0.957153 4.829841,-1.911835 5.913138,-2.121517 1.083298,-0.209681 4.345798,-1.469083 7.25,-2.798671 3.972429,-1.818637 5.280369,-2.077071 5.280369,-1.043339 0,1.115335 1.22754,1.023046 6.5187,-0.490088 3.58528,-1.025299 6.25873,-1.443537 5.94098,-0.929417 -0.31774,0.514121 -1.1996,0.934764 -1.95968,0.934764 -0.76008,0 -1.66664,0.460614 -2.01458,1.023586 -0.41059,0.664347 0.8848,0.851456 3.69099,0.533132 2.37797,-0.26975 3.42359,-0.233906 2.32359,0.07965 -1.1,0.313558 -2.675,1.135924 -3.5,1.827479 -0.91132,0.763913 -3.46227,1.121294 -6.5,0.910633 -5.21101,-0.361375 -26.300333,4.38318 -31.903638,7.177499 -3.978066,1.983827 -5.238982,1.815587 -3.208477,-0.428096 z m 81.112115,-4.289385 c -5.98585,-1.982501 -15.09949,-3.765356 -19.5,-3.814683 -2.475,-0.02774 -5.175,-0.50685 -6,-1.064681 -3.60044,-2.43447 25.44528,2.449471 29.84604,5.018513 2.23748,1.306179 -0.21964,1.227508 -4.34604,-0.139149 z m 278.83176,-8.5845 c 3.06445,-4.553749 4.37794,-5.823861 4.91824,-4.755799 0.33,0.652343 -6.55194,9.419099 -7.43238,9.467943 -0.3753,0.02082 0.75606,-2.099644 2.51414,-4.712144 z M 32.885897,66.910876 c 0.04798,-1.164943 0.28494,-1.401899 0.604167,-0.604167 0.28887,0.721875 0.253344,1.584375 -0.07895,1.916667 -0.332291,0.332292 -0.56864,-0.258333 -0.525219,-1.3125 z m -0.07895,-5.916667 v -3.5 h 154.94098 c 102.2153,0 155.1513,0.340296 155.55902,1 0.33992,0.55 1.06803,1 1.61803,1 0.55,0 0.72189,-0.45 0.38197,-1 -0.35191,-0.569401 0.50929,-1 2,-1 1.55797,0 2.35776,0.421137 1.97523,1.040082 -0.41135,0.665573 0.22425,0.822463 1.76518,0.435714 1.44382,-0.362375 2.84482,-0.07812 3.49895,0.709919 0.90044,1.084776 -26.64132,1.314285 -157.71822,1.314285 -149.843112,0 -158.918391,0.0988 -160.743891,1.75 -2.75246,2.489651 -3.277249,2.209422 -3.277249,-1.75 z m 393.00013,0.75 c 8e-5,-0.4125 -8.51214,-0.75 -18.91604,-0.75 -10.4039,0 -19.26146,-0.345 -19.68347,-0.766666 -0.42201,-0.421667 -0.21605,-1.317905 0.45769,-1.991641 0.96663,-0.966632 1.40351,-0.936098 2.07153,0.144782 0.50652,0.819573 1.36867,1.04707 2.14643,0.566386 0.71494,-0.441853 9.49875,-0.984724 19.51958,-1.20638 17.74539,-0.392519 18.23687,-0.348908 18.87931,1.675255 0.59782,1.88358 1.37929,2.065507 8.34223,1.942082 4.22543,-0.0749 6.55761,-0.308762 5.18261,-0.519692 -7.74954,-1.188813 -9,-1.520801 -9,-2.389439 0,-1.039047 8.17471,-1.282898 11.66041,-0.347829 2.02357,0.542841 2.057,0.700321 0.52776,2.486345 -1.39942,1.634403 -3.02945,1.906797 -11.41041,1.906797 -5.37777,0 -9.7777,-0.3375 -9.77763,-0.75 z m -28.27096,-2.854166 c -0.3323,-0.332292 -1.1948,-0.367818 -1.91667,-0.07895 -0.79773,0.319227 -0.56078,0.556183 0.60417,0.604167 1.05416,0.04342 1.64479,-0.192928 1.3125,-0.525219 z m 12,0 c -0.3323,-0.332292 -1.1948,-0.367818 -1.91667,-0.07895 -0.79773,0.319227 -0.56078,0.556183 0.60417,0.604167 1.05416,0.04342 1.64479,-0.192928 1.3125,-0.525219 z m 9,0 c -0.3323,-0.332292 -1.1948,-0.367818 -1.91667,-0.07895 -0.79773,0.319227 -0.56078,0.556183 0.60417,0.604167 1.05416,0.04342 1.64479,-0.192928 1.3125,-0.525219 z m 27,0 c -0.3323,-0.332292 -1.1948,-0.367818 -1.91667,-0.07895 -0.79773,0.319227 -0.56078,0.556183 0.60417,0.604167 1.05416,0.04342 1.64479,-0.192928 1.3125,-0.525219 z m 3.27083,2.544157 c 0,-0.516995 0.47656,-0.939991 1.05902,-0.939991 0.58246,0 0.81057,-0.401997 0.50691,-0.893326 -0.30366,-0.49133 0.54623,-1.168991 1.88864,-1.505915 1.34241,-0.336923 25.6393,-0.590492 53.99309,-0.563486 l 51.55234,0.0491 v 2.482398 2.482398 l -54.5,-0.0856 c -33.28643,-0.05228 -54.5,-0.451476 -54.5,-1.025585 z m 7,-1.939991 c 0,-0.55 -0.45,-1 -1,-1 -0.55,0 -1,0.45 -1,1 0,0.55 0.45,1 1,1 0.55,0 1,-0.45 1,-1 z m 7,0 c 0,-0.55 -0.64844,-1 -1.44098,-1 -0.79254,0 -1.7191,0.45 -2.05902,1 -0.33992,0.55 0.30852,1 1.44098,1 1.13246,0 2.05902,-0.45 2.05902,-1 z m -104.5,0 c 1.86061,-2.055955 4.97415,-2.659855 5.90963,-1.146228 0.59421,0.961453 -3.6498,3.146228 -6.11167,3.146228 -1.4099,0 -1.38502,-0.246322 0.20204,-2 z m 13,1.080808 c 4.4,-0.319444 8.5625,-0.944865 9.25,-1.389825 0.81143,-0.525166 1.25,-0.262022 1.25,0.75 0,1.311855 -1.46647,1.532194 -9.25,1.389825 l -9.25,-0.169193 z m 0,-2.080808 c 0.33992,-0.55 1.04148,-1 1.55902,-1 0.51754,0 0.94098,0.45 0.94098,1 0,0.55 -0.70156,1 -1.55902,1 -0.85746,0 -1.2809,-0.45 -0.94098,-1 z"
       id="path1" />
    <path
       style="fill:none;stroke:#000000;stroke-opacity:1"
       d="m 187.41313,261.08108 -5.09653,-23.16602 5.32819,-27.79923 16.67953,-7.87645 29.42085,-13.89961 4.63321,14.59459 -0.69498,22.23939 -4.16989,31.73745 -2.77992,6.02316"
       id="path2" />
    <path
       style="fill:none;stroke:#000000;stroke-opacity:1"
       d="m 183.24324,207.56757 -7.41312,10.42471 -1.85329,15.52123 -1.85328,17.83784 2.3166,5.09653"
       id="path3" />
    <path
       style="fill:none;stroke:#000000;stroke-opacity:1"
       d="m 186.48649,251.58301 18.30116,11.11969 18.30115,0.23166 9.49807,-7.41312"
       id="path4" />
    <path
       style="fill:none;stroke:#000000;stroke-opacity:1"
       d="m 190.19305,224.94209 5.55985,8.57142 9.49807,8.80309 14.82625,1.85328 6.71815,-5.09652 5.32818,-5.32819 2.08494,-15.28957 -5.09652,-9.26641 -14.13127,-3.24324 -5.55985,0.92664 -11.58301,11.35135 -4.40155,4.6332 z"
       id="path5" />
    <path
       style="fill:none;stroke:#000000;stroke-opacity:1"
       d="m 216.60232,243.4749 -0.92664,-4.40154 2.3166,-2.3166 2.77992,-0.69498 2.3166,3.24324 1.38996,2.54826"
       id="path6" />
    <path
       style="fill:none;stroke:#000000;stroke-opacity:1"
       id="path7"
       sodipodi:type="arc"
       sodipodi:cx="202.58687"
       sodipodi:cy="227.72202"
       sodipodi:rx="4.2857141"
       sodipodi:ry="6.9498072"
       sodipodi:start="6.2330032"
       sodipodi:end="6.2311835"
       sodipodi:open="true"
       sodipodi:arc-type="arc"
       d="m 206.86719,227.37341 a 4.2857141,6.9498072 0 0 1 -4.0634,7.2895 4.2857141,6.9498072 0 0 1 -4.49704,-6.58597 4.2857141,6.9498072 0 0 1 4.0593,-7.2955 4.2857141,6.9498072 0 0 1 4.50074,6.57934" />
    <path
       style="fill:none;stroke:#000000;stroke-opacity:1"
       id="path8"
       sodipodi:type="arc"
       sodipodi:cx="219.84557"
       sodipodi:cy="211.96912"
       sodipodi:rx="6.7181468"
       sodipodi:ry="3.4749036"
       sodipodi:start="6.2330032"
       sodipodi:end="6.2311835"
       sodipodi:open="true"
       sodipodi:arc-type="arc"
       d="m 226.55526,211.79481 a 6.7181468,3.4749036 0 0 1 -6.36965,3.64476 6.7181468,3.4749036 0 0 1 -7.04942,-3.29299 6.7181468,3.4749036 0 0 1 6.36323,-3.64775 6.7181468,3.4749036 0 0 1 7.05521,3.28967" />
    <path
       style="fill:none;stroke:#000000;stroke-opacity:1"
       d="m 279.86686,330.31988 3.52188,-2.45713 -2.53903,-2.86664 3.68569,-4.58664 4.83235,0.0819 3.60379,-1.55618"
       id="path9" />
    <path
       style="fill:none;stroke:#000000;stroke-opacity:1"
       d="m 279.78495,315.74092 1.22857,2.86665 3.9314,1.71999"
       id="path10" />
    <path
       style="fill:none;fill-opacity:1;stroke:#000000;stroke-opacity:1"
       d="m 257.75271,253.24797 -8.59995,-6.79805 9.5828,3.52188 -8.68185,-9.00947 8.43614,6.38854 -9.91042,-10.97517 10.72946,8.92756 -7.45329,-9.50089 9.00947,4.75044 -9.50089,-6.96186 9.99232,3.35808 -8.43614,-6.87996 10.31993,4.34092 -9.00947,-8.27233 13.84182,7.04377"
       id="path12" />
    <path
       style="fill:none;fill-opacity:1;stroke:#000000;stroke-opacity:1"
       d="m 102.38033,91.405155 13.10468,35.546445 -8.84566,1.47428 0.49142,7.699 29.97696,-12.28564 -2.29332,-6.06091 -19.16559,7.699"
       id="path13" />
    <path
       style="fill:none;fill-opacity:1;stroke:#000000;stroke-opacity:1"
       d="m 115.15739,90.586112 12.94087,29.813148"
       id="path14" />
    <path
       style="fill:none;fill-opacity:1;stroke:#000000;stroke-opacity:1"
       d="m 117.12309,132.19348 3.43998,26.37317"
       id="path15" />
    <path
       style="fill:none;fill-opacity:1;stroke:#000000;stroke-opacity:1"
       d="m 130.06397,126.7878 3.43997,25.55412"
       id="path16" />
    <path
       style="fill:none;fill-opacity:1;stroke:#000000;stroke-opacity:1"
       d="m 156.92856,98.285113 12.28564,23.260807 -6.87996,1.31047 -0.49142,8.19043 24.24366,-1.63809 -2.45713,-8.19042 -14.25134,0.65523"
       id="path17" />
    <path
       style="fill:none;fill-opacity:1;stroke:#000000;stroke-opacity:1"
       d="m 172.81799,103.36318 8.19043,18.18274"
       id="path18" />
    <path
       style="fill:none;fill-opacity:1;stroke:#000000;stroke-opacity:1"
       d="m 183.46554,129.24492 3.7676,12.61326"
       id="path19" />
    <path
       style="fill:none;fill-opacity:1;stroke:#000000;stroke-opacity:1"
       d="m 172.65418,131.70205 3.60379,11.79421"
       id="path20" />
    <path
       style="fill:none;fill-opacity:1;stroke:#000000;stroke-opacity:1"
       d="m 156.76475,126.62399 -19.98464,15.56181 -13.75991,8.35423 -12.77707,6.71615 -9.6647,8.02662"
       id="path21" />
    <path
       style="fill:none;fill-opacity:1;stroke:#000000;stroke-opacity:1"
       d="m 281.00386,151.04247 14.5946,4.16989 6.83397,3.24324"
       id="path22" />
    <path
       style="fill:none;fill-opacity:1;stroke:#000000;stroke-opacity:1"
       d="m 271.27413,144.09266 9.15058,-4.40154 11.81467,-1.04247 2.08494,-0.46332"
       id="path23" />
    <path
       style="fill:none;fill-opacity:1;stroke:#000000;stroke-opacity:1"
       d="m 281.00386,166.67954 23.74518,6.48648 11.23552,4.74904"
       id="path24" />
    <path
       style="fill:none;fill-opacity:1;stroke:#000000;stroke-opacity:1"
       d="m 287.83784,174.09266 19.11197,3.35908 10.07722,4.28571"
       id="path25" />
    <path
       style="fill:none;fill-opacity:1;stroke:#000000;stroke-opacity:1"
       d="m 222.85714,395.09653 -1.27413,-6.25483"
       id="path26" />
    <path
       style="fill:none;fill-opacity:1;stroke:#000000;stroke-opacity:1"
       d="M 168.06754,358.08543 147.10005,346.29121"
       id="path27" />
    <path
       style="fill:none;fill-opacity:1;stroke:#000000;stroke-opacity:1"
       d="m 171.42857,359.42085 18.76448,4.40154"
       id="path28" />
    <path
       style="fill:none;fill-opacity:1;stroke:#000000;stroke-opacity:1"
       d="m 498.30552,108.93267 19.00179,25.22651 9.82851,19.82083 10.48375,51.76349 2.45712,6.71615 7.20758,30.95981"
       id="path29" />
    <path
       style="fill:none;fill-opacity:1;stroke:#000000;stroke-opacity:1"
       d="m 483.56275,124.9859 c 0.49143,4.91426 -1.31046,19.98464 -1.31046,19.98464 l 22.27795,13.26849"
       id="path30" />
  </g>
</svg>
